<svg width="50" height="50" viewBox="0 0 50 50" fill="none" xmlns="http://www.w3.org/2000/svg">
<ellipse cx="24.6667" cy="25" rx="24.6667" ry="25" fill="#F3F7FF"/>
<path d="M19 21V28" stroke="#2979FF" stroke-width="2.5" stroke-linecap="round" stroke-linejoin="round"/>
<path d="M19.25 20.5C21.0449 20.5 22.5 19.0449 22.5 17.25C22.5 15.4551 21.0449 14 19.25 14C17.4551 14 16 15.4551 16 17.25C16 19.0449 17.4551 20.5 19.25 20.5Z" stroke="#2979FF" stroke-width="2.5" stroke-linecap="round" stroke-linejoin="round"/>
<path d="M19 34C20.6569 34 22 32.6569 22 31C22 29.3431 20.6569 28 19 28C17.3431 28 16 29.3431 16 31C16 32.6569 17.3431 34 19 34Z" stroke="#2979FF" stroke-width="2.5" stroke-linecap="round" stroke-linejoin="round"/>
<path d="M33 34C34.6569 34 36 32.6569 36 31C36 29.3431 34.6569 28 33 28C31.3431 28 30 29.3431 30 31C30 32.6569 31.3431 34 33 34Z" stroke="#2979FF" stroke-width="2.5" stroke-linecap="round" stroke-linejoin="round"/>
<path d="M19.13 21C19.58 22.75 21.18 24.05 23.07 24.04L26.5 24.03C29.12 24.02 31.35 25.7 32.17 28.04" stroke="#2979FF" stroke-width="2.5" stroke-linecap="round" stroke-linejoin="round"/>
</svg>
