<svg width="500" height="500" viewBox="0 0 500 500" fill="none" xmlns="http://www.w3.org/2000/svg">
<path d="M500 382.4H0V382.65H500V382.4Z" fill="#EBEBEB"/>
<path d="M449.899 398.49H416.779V398.74H449.899V398.49Z" fill="#EBEBEB"/>
<path d="M331.219 401.21H322.529V401.46H331.219V401.21Z" fill="#EBEBEB"/>
<path d="M415.78 389.21H396.59V389.46H415.78V389.21Z" fill="#EBEBEB"/>
<path d="M95.6509 390.89H52.4609V391.14H95.6509V390.89Z" fill="#EBEBEB"/>
<path d="M110.891 390.89H104.561V391.14H110.891V390.89Z" fill="#EBEBEB"/>
<path d="M225.151 395.11H131.471V395.36H225.151V395.11Z" fill="#EBEBEB"/>
<path d="M237.001 337.8H43.9109C42.3983 337.797 40.9485 337.195 39.8798 336.124C38.8112 335.053 38.2109 333.603 38.2109 332.09V60.66C38.2241 59.156 38.8301 57.718 39.8974 56.6582C40.9646 55.5985 42.4069 55.0026 43.9109 55H237.001C238.515 55 239.968 55.6016 241.039 56.6724C242.109 57.7433 242.711 59.1956 242.711 60.71V332.09C242.711 333.604 242.109 335.057 241.039 336.128C239.968 337.198 238.515 337.8 237.001 337.8ZM43.9109 55.2C42.4646 55.2026 41.0784 55.7791 40.0566 56.8027C39.0348 57.8264 38.4609 59.2136 38.4609 60.66V332.09C38.4609 333.536 39.0348 334.924 40.0566 335.947C41.0784 336.971 42.4646 337.547 43.9109 337.55H237.001C238.448 337.547 239.835 336.971 240.859 335.948C241.882 334.924 242.458 333.537 242.461 332.09V60.66C242.458 59.2127 241.882 57.8255 240.859 56.8021C239.835 55.7787 238.448 55.2026 237.001 55.2H43.9109Z" fill="#EBEBEB"/>
<path d="M453.31 337.8H260.21C258.696 337.797 257.246 337.195 256.175 336.125C255.105 335.054 254.503 333.604 254.5 332.09V60.66C254.516 59.1551 255.124 57.7171 256.193 56.6576C257.262 55.5981 258.705 55.0025 260.21 55H453.31C454.812 55.0052 456.252 55.6022 457.317 56.6617C458.382 57.7212 458.987 59.1578 459 60.66V332.09C459 333.601 458.401 335.05 457.335 336.121C456.268 337.191 454.821 337.795 453.31 337.8ZM260.21 55.2C258.763 55.2026 257.375 55.7787 256.352 56.8021C255.329 57.8255 254.753 59.2127 254.75 60.66V332.09C254.753 333.537 255.329 334.924 256.352 335.948C257.375 336.971 258.763 337.547 260.21 337.55H453.31C454.757 337.547 456.145 336.971 457.168 335.948C458.191 334.924 458.767 333.537 458.77 332.09V60.66C458.767 59.2127 458.191 57.8255 457.168 56.8021C456.145 55.7787 454.757 55.2026 453.31 55.2H260.21Z" fill="#EBEBEB"/>
<path d="M160.66 102.39H89.4102V344.1H160.66V102.39Z" fill="#FAFAFA"/>
<path d="M150.049 102.39H145.889L121.039 344.1H125.199L150.049 102.39Z" fill="#F5F5F5"/>
<path d="M159.399 103.33H88.9492V105.46H159.399V103.33Z" fill="#E0E0E0"/>
<path d="M159.399 341.99H88.9492V346.55H159.399V341.99Z" fill="#EBEBEB"/>
<path d="M158.23 346.35H91.6602V346.55H158.23V346.35Z" fill="#EBEBEB"/>
<path d="M91.6599 103.33H158.23V346.35H162.22V100.34H87.6699V346.35H91.6599V103.33Z" fill="#EBEBEB"/>
<path d="M239.949 102.39H168.699V344.1H239.949V102.39Z" fill="#FAFAFA"/>
<path d="M220.189 102.39H197.469L172.619 344.1H195.329L220.189 102.39Z" fill="#F5F5F5"/>
<path d="M240.69 103.33H168.24V105.46H240.69V103.33Z" fill="#E0E0E0"/>
<path d="M240.69 341.99H168.24V346.55H240.69V341.99Z" fill="#EBEBEB"/>
<path d="M237.519 346.35H170.949V346.55H237.519V346.35Z" fill="#EBEBEB"/>
<path d="M170.951 103.33H237.521V346.35H241.501V100.34H166.961V346.35H170.951V103.33Z" fill="#EBEBEB"/>
<path d="M317.23 102.39H247.98V344.1H317.23V102.39Z" fill="#FAFAFA"/>
<path d="M287.221 102.39H283.061L258.211 344.1H262.371L287.221 102.39Z" fill="#F5F5F5"/>
<path d="M317.979 103.33H247.529V105.46H317.979V103.33Z" fill="#E0E0E0"/>
<path d="M317.979 341.99H247.529V346.55H317.979V341.99Z" fill="#EBEBEB"/>
<path d="M316.81 346.35H250.24V346.55H316.81V346.35Z" fill="#EBEBEB"/>
<path d="M250.24 103.33H316.8V346.35H320.79V100.34H246.25V346.35H250.24V103.33Z" fill="#EBEBEB"/>
<path d="M398.52 102.39H327.27V344.1H398.52V102.39Z" fill="#FAFAFA"/>
<path d="M391.55 102.39H368.84L343.98 344.1H366.7L391.55 102.39Z" fill="#F5F5F5"/>
<path d="M397.27 103.33H326.82V105.46H397.27V103.33Z" fill="#E0E0E0"/>
<path d="M397.27 341.99H326.82V346.55H397.27V341.99Z" fill="#EBEBEB"/>
<path d="M329.519 103.33H396.089V346.35H400.079V100.34H325.539V346.35H329.519V103.33Z" fill="#EBEBEB"/>
<path d="M396.09 346.35H329.52V346.55H396.09V346.35Z" fill="#EBEBEB"/>
<path d="M138.61 288.49H107.68V341.98H138.61V288.49Z" fill="#EBEBEB"/>
<path d="M132.679 281.01V294.43H130.239H116.059H113.619V281.01H132.679Z" fill="#EBEBEB"/>
<path d="M132.671 294.43H136.631V290.47H132.671V294.43Z" fill="#FAFAFA"/>
<path d="M125.011 294.43H128.971V290.47H125.011V294.43Z" fill="#FAFAFA"/>
<path d="M117.341 294.43H121.301V290.47H117.341V294.43Z" fill="#FAFAFA"/>
<path d="M109.671 294.43H113.631V290.47H109.671V294.43Z" fill="#F0F0F0"/>
<path d="M132.671 301.63H136.631V297.67H132.671V301.63Z" fill="#F0F0F0"/>
<path d="M125.011 301.63H128.971V297.67H125.011V301.63Z" fill="#F0F0F0"/>
<path d="M117.341 301.63H121.301V297.67H117.341V301.63Z" fill="#FAFAFA"/>
<path d="M109.671 301.63H113.631V297.67H109.671V301.63Z" fill="#FAFAFA"/>
<path d="M132.671 308.82H136.631V304.86H132.671V308.82Z" fill="#F0F0F0"/>
<path d="M125.011 308.82H128.971V304.86H125.011V308.82Z" fill="#FAFAFA"/>
<path d="M117.341 308.82H121.301V304.86H117.341V308.82Z" fill="#FAFAFA"/>
<path d="M125.011 288.21H128.971V284.25H125.011V288.21Z" fill="#FAFAFA"/>
<path d="M117.341 288.21H121.301V284.25H117.341V288.21Z" fill="#F0F0F0"/>
<path d="M109.671 308.82H113.631V304.86H109.671V308.82Z" fill="#F0F0F0"/>
<path d="M132.671 316.02H136.631V312.06H132.671V316.02Z" fill="#FAFAFA"/>
<path d="M125.011 316.02H128.971V312.06H125.011V316.02Z" fill="#F0F0F0"/>
<path d="M117.341 316.02H121.301V312.06H117.341V316.02Z" fill="#F0F0F0"/>
<path d="M109.671 316.02H113.631V312.06H109.671V316.02Z" fill="#FAFAFA"/>
<path d="M132.671 323.21H136.631V319.25H132.671V323.21Z" fill="#F0F0F0"/>
<path d="M125.011 323.21H128.971V319.25H125.011V323.21Z" fill="#FAFAFA"/>
<path d="M117.341 323.21H121.301V319.25H117.341V323.21Z" fill="#FAFAFA"/>
<path d="M109.671 323.21H113.631V319.25H109.671V323.21Z" fill="#F0F0F0"/>
<path d="M132.671 330.4H136.631V326.44H132.671V330.4Z" fill="#F0F0F0"/>
<path d="M125.011 330.4H128.971V326.44H125.011V330.4Z" fill="#FAFAFA"/>
<path d="M117.341 330.4H121.301V326.44H117.341V330.4Z" fill="#F0F0F0"/>
<path d="M109.671 330.4H113.631V326.44H109.671V330.4Z" fill="#FAFAFA"/>
<path d="M132.671 337.6H136.631V333.64H132.671V337.6Z" fill="#FAFAFA"/>
<path d="M125.011 337.6H128.971V333.64H125.011V337.6Z" fill="#FAFAFA"/>
<path d="M117.341 337.6H121.301V333.64H117.341V337.6Z" fill="#F0F0F0"/>
<path d="M109.671 337.6H113.631V333.64H109.671V337.6Z" fill="#F0F0F0"/>
<path d="M313 288.49H282.07V341.98H313V288.49Z" fill="#EBEBEB"/>
<path d="M307.07 281.01V294.43H304.63H290.45H288.01V281.01H307.07Z" fill="#EBEBEB"/>
<path d="M307.06 294.43H311.02V290.47H307.06V294.43Z" fill="#FAFAFA"/>
<path d="M299.39 294.43H303.35V290.47H299.39V294.43Z" fill="#FAFAFA"/>
<path d="M291.72 294.43H295.68V290.47H291.72V294.43Z" fill="#FAFAFA"/>
<path d="M284.06 294.43H288.02V290.47H284.06V294.43Z" fill="#F0F0F0"/>
<path d="M307.06 301.63H311.02V297.67H307.06V301.63Z" fill="#F0F0F0"/>
<path d="M299.39 301.63H303.35V297.67H299.39V301.63Z" fill="#F0F0F0"/>
<path d="M291.72 301.63H295.68V297.67H291.72V301.63Z" fill="#FAFAFA"/>
<path d="M284.06 301.63H288.02V297.67H284.06V301.63Z" fill="#FAFAFA"/>
<path d="M307.06 308.82H311.02V304.86H307.06V308.82Z" fill="#F0F0F0"/>
<path d="M299.39 308.82H303.35V304.86H299.39V308.82Z" fill="#FAFAFA"/>
<path d="M291.72 308.82H295.68V304.86H291.72V308.82Z" fill="#FAFAFA"/>
<path d="M299.39 288.21H303.35V284.25H299.39V288.21Z" fill="#FAFAFA"/>
<path d="M291.72 288.21H295.68V284.25H291.72V288.21Z" fill="#F0F0F0"/>
<path d="M284.06 308.82H288.02V304.86H284.06V308.82Z" fill="#F0F0F0"/>
<path d="M307.06 316.02H311.02V312.06H307.06V316.02Z" fill="#FAFAFA"/>
<path d="M299.39 316.02H303.35V312.06H299.39V316.02Z" fill="#F0F0F0"/>
<path d="M291.72 316.02H295.68V312.06H291.72V316.02Z" fill="#F0F0F0"/>
<path d="M284.06 316.02H288.02V312.06H284.06V316.02Z" fill="#FAFAFA"/>
<path d="M307.06 323.21H311.02V319.25H307.06V323.21Z" fill="#F0F0F0"/>
<path d="M299.39 323.21H303.35V319.25H299.39V323.21Z" fill="#FAFAFA"/>
<path d="M291.72 323.21H295.68V319.25H291.72V323.21Z" fill="#FAFAFA"/>
<path d="M284.06 323.21H288.02V319.25H284.06V323.21Z" fill="#F0F0F0"/>
<path d="M307.06 330.4H311.02V326.44H307.06V330.4Z" fill="#F0F0F0"/>
<path d="M299.39 330.4H303.35V326.44H299.39V330.4Z" fill="#FAFAFA"/>
<path d="M291.72 330.4H295.68V326.44H291.72V330.4Z" fill="#F0F0F0"/>
<path d="M284.06 330.4H288.02V326.44H284.06V330.4Z" fill="#FAFAFA"/>
<path d="M307.06 337.6H311.02V333.64H307.06V337.6Z" fill="#FAFAFA"/>
<path d="M299.39 337.6H303.35V333.64H299.39V337.6Z" fill="#FAFAFA"/>
<path d="M291.72 337.6H295.68V333.64H291.72V337.6Z" fill="#F0F0F0"/>
<path d="M284.06 337.6H288.02V333.64H284.06V337.6Z" fill="#F0F0F0"/>
<path d="M362.14 307.97H334.43V341.97H362.14V307.97Z" fill="#F0F0F0"/>
<path d="M336.84 311.74H343.29H345.06H346.83V315.29H345.06H343.29H336.84V311.74Z" fill="#E6E6E6"/>
<path d="M336.84 318.62H343.29H345.06H346.83V322.16H345.06H343.29H336.84V318.62Z" fill="#FAFAFA"/>
<path d="M336.84 325.49H343.29H345.06H346.83V329.03H345.06H343.29H336.84V325.49Z" fill="#E6E6E6"/>
<path d="M336.84 332.36H343.29H346.03H346.83V335.91H346.03H343.29H336.84V332.36Z" fill="#FAFAFA"/>
<path d="M349.73 311.74H356.18H357.95H359.72V315.29H357.95H356.18H349.73V311.74Z" fill="#FAFAFA"/>
<path d="M349.73 318.62H356.18H358.68H359.72V322.16H358.68H356.18H349.73V318.62Z" fill="#FAFAFA"/>
<path d="M349.73 325.49H356.18H357.95H359.72V329.03H357.95H356.18H349.73V325.49Z" fill="#E6E6E6"/>
<path d="M349.73 332.36H356.18H357.95H359.72V335.91H357.95H356.18H349.73V332.36Z" fill="#FAFAFA"/>
<path d="M229.991 320.85H204.811V341.98H229.991V320.85Z" fill="#F0F0F0"/>
<path d="M225.149 326.71H228.369V323.49H225.149V326.71Z" fill="#FAFAFA"/>
<path d="M218.899 326.71H222.119V323.49H218.899V326.71Z" fill="#FAFAFA"/>
<path d="M212.671 326.71H215.891V323.49H212.671V326.71Z" fill="#FAFAFA"/>
<path d="M206.421 326.71H209.641V323.49H206.421V326.71Z" fill="#FAFAFA"/>
<path d="M225.149 332.56H228.369V329.34H225.149V332.56Z" fill="#FAFAFA"/>
<path d="M218.899 332.56H222.119V329.34H218.899V332.56Z" fill="#FAFAFA"/>
<path d="M212.671 332.56H215.891V329.34H212.671V332.56Z" fill="#FAFAFA"/>
<path d="M206.421 332.56H209.641V329.34H206.421V332.56Z" fill="#E6E6E6"/>
<path d="M225.149 338.42H228.369V335.2H225.149V338.42Z" fill="#E6E6E6"/>
<path d="M218.899 338.42H222.119V335.2H218.899V338.42Z" fill="#E6E6E6"/>
<path d="M212.671 338.42H215.891V335.2H212.671V338.42Z" fill="#FAFAFA"/>
<path d="M206.421 338.42H209.641V335.2H206.421V338.42Z" fill="#E6E6E6"/>
<path d="M279.43 320.85H254.25V341.98H279.43V320.85Z" fill="#F0F0F0"/>
<path d="M274.6 326.71H277.82V323.49H274.6V326.71Z" fill="#FAFAFA"/>
<path d="M268.35 326.71H271.57V323.49H268.35V326.71Z" fill="#FAFAFA"/>
<path d="M262.11 326.71H265.33V323.49H262.11V326.71Z" fill="#FAFAFA"/>
<path d="M255.87 326.71H259.09V323.49H255.87V326.71Z" fill="#FAFAFA"/>
<path d="M274.6 332.56H277.82V329.34H274.6V332.56Z" fill="#FAFAFA"/>
<path d="M268.35 332.56H271.57V329.34H268.35V332.56Z" fill="#FAFAFA"/>
<path d="M262.11 332.56H265.33V329.34H262.11V332.56Z" fill="#FAFAFA"/>
<path d="M255.87 332.56H259.09V329.34H255.87V332.56Z" fill="#E6E6E6"/>
<path d="M274.6 338.42H277.82V335.2H274.6V338.42Z" fill="#E6E6E6"/>
<path d="M268.35 338.42H271.57V335.2H268.35V338.42Z" fill="#E6E6E6"/>
<path d="M262.11 338.42H265.33V335.2H262.11V338.42Z" fill="#FAFAFA"/>
<path d="M255.87 338.42H259.09V335.2H255.87V338.42Z" fill="#E6E6E6"/>
<path d="M201.401 305.22H176.221V341.97H201.401V305.22Z" fill="#F0F0F0"/>
<path d="M199.79 306.84H190.32V315.92H199.79V306.84Z" fill="#FAFAFA"/>
<path d="M187.3 306.84H177.83V315.92H187.3V306.84Z" fill="#FAFAFA"/>
<path d="M199.79 318.55H190.32V327.63H199.79V318.55Z" fill="#FAFAFA"/>
<path d="M187.3 318.55H177.83V327.63H187.3V318.55Z" fill="#FAFAFA"/>
<path d="M199.79 330.26H190.32V339.34H199.79V330.26Z" fill="#FAFAFA"/>
<path d="M187.3 330.26H177.83V339.34H187.3V330.26Z" fill="#FAFAFA"/>
<path d="M391.53 305.22H366.35V341.97H391.53V305.22Z" fill="#F0F0F0"/>
<path d="M389.919 306.84H380.449V315.92H389.919V306.84Z" fill="#FAFAFA"/>
<path d="M377.431 306.84H367.961V315.92H377.431V306.84Z" fill="#FAFAFA"/>
<path d="M389.919 318.55H380.449V327.63H389.919V318.55Z" fill="#FAFAFA"/>
<path d="M377.431 318.55H367.961V327.63H377.431V318.55Z" fill="#FAFAFA"/>
<path d="M389.919 330.26H380.449V339.34H389.919V330.26Z" fill="#FAFAFA"/>
<path d="M377.431 330.26H367.961V339.34H377.431V330.26Z" fill="#FAFAFA"/>
<path d="M76.2498 355.1C76.2498 355.1 71.1898 344.1 76.9698 333.16C82.7498 322.22 84.4398 319.71 80.7498 317.47C77.0598 315.23 75.3698 326.19 75.3698 326.19C73.5416 321.244 73.3522 315.842 74.8298 310.78C77.3898 302.9 78.9998 290.06 75.4998 288.69C71.9998 287.32 74.8298 304.69 71.7898 310.63C70.2308 306.469 69.2222 302.122 68.7898 297.7C68.3698 291.37 69.0298 281.26 66.2598 278.7C63.4898 276.14 61.7198 277.9 64.4398 291.87C66.0745 300.215 66.978 308.688 67.1398 317.19C67.1398 317.19 61.1398 298.87 57.1398 298.33C53.1398 297.79 53.1398 303.73 56.5598 308.88C59.9798 314.03 66.6498 323.21 67.7398 328C67.7398 328 61.1498 314.21 55.2098 318.44C49.2698 322.67 60.3798 331 65.3198 334C70.2598 337 73.6998 355.87 73.6998 355.87L76.2498 355.1Z" fill="#E0E0E0"/>
<path d="M72.2491 359.63C72.2491 359.63 77.1791 348.51 71.2491 337.71C65.3191 326.91 63.6291 324.36 67.2491 322.08C70.8691 319.8 72.7291 330.71 72.7291 330.71C72.7291 330.71 75.7291 323.13 73.0891 315.29C70.4491 307.45 68.6591 294.64 72.1491 293.21C75.6391 291.78 73.0091 309.21 76.1491 315.09C77.6489 310.897 78.5969 306.527 78.9691 302.09C79.3091 295.76 78.5291 285.66 81.2691 283.03C84.0091 280.4 85.7991 282.16 83.2691 296.17C81.736 304.538 80.933 313.023 80.8691 321.53C80.8691 321.53 86.6591 303.12 90.6891 302.53C94.7191 301.94 94.7791 307.87 91.3891 313.07C87.9991 318.27 81.4491 327.59 80.3891 332.35C80.3891 332.35 86.8191 318.46 92.7991 322.6C98.7791 326.74 87.7991 335.23 82.8791 338.31C77.9591 341.39 74.7591 360.31 74.7591 360.31L72.2491 359.63Z" fill="#EBEBEB"/>
<path d="M94.9998 351.71H54.2598L57.5598 380.86H91.6998L94.9998 351.71Z" fill="#EBEBEB"/>
<path d="M400.339 349.63C400.489 348.63 403.859 325.34 397.099 317.29C396.424 316.443 395.57 315.756 394.599 315.277C393.627 314.798 392.562 314.54 391.479 314.52C377.819 314.2 375.949 325.18 375.939 325.29L377.549 325.54C377.609 325.14 379.229 315.86 391.439 316.15C392.291 316.162 393.13 316.365 393.893 316.744C394.656 317.123 395.325 317.669 395.849 318.34C402.149 325.83 398.759 349.16 398.729 349.39L400.339 349.63Z" fill="#EBEBEB"/>
<path d="M401.17 348.57L402.79 348.52C402.79 348.3 402.25 327.04 412.73 322.65C422.99 318.35 427.61 327.19 427.8 327.57L429.26 326.84C429.2 326.73 423.79 316.25 412.1 321.15C400.59 326 401.14 347.65 401.17 348.57Z" fill="#EBEBEB"/>
<path d="M401.12 350.24C401.12 349.9 401.22 316.24 407.77 306.44C414.07 297 424.22 301.44 424.65 301.64L425.32 300.16C425.2 300.1 413.49 294.93 406.42 305.54C399.59 315.78 399.49 348.83 399.49 350.24H401.12Z" fill="#EBEBEB"/>
<path d="M389.519 315.33C389.519 315.33 395.519 317.53 393.719 322.72C391.919 327.91 373.079 336.45 373.079 336.45C373.079 336.45 365.189 329.22 372.439 317.45C379.689 305.68 389.359 311.62 389.519 315.33Z" fill="#E0E0E0"/>
<path d="M408.07 304.67C408.07 304.67 403.83 304.22 404.17 301.67C404.51 299.12 420.63 292.45 430.17 303.19C430.17 303.19 424.08 313.65 415.28 313.78C406.48 313.91 408.07 304.67 408.07 304.67Z" fill="#E0E0E0"/>
<path d="M412.409 321.9C412.409 321.9 409.489 319.54 412.639 318.39C415.789 317.24 431.269 317.57 431.429 332.89C431.429 332.89 413.429 335.89 411.179 330.05C408.929 324.21 412.409 321.9 412.409 321.9Z" fill="#E0E0E0"/>
<path d="M386.321 380.86H414.291L417.301 350.24H383.301L386.321 380.86Z" fill="#EBEBEB"/>
<path d="M381.811 353.61H418.801V346.85H381.811V353.61Z" fill="#E0E0E0"/>
<path d="M249.999 427.56C357.082 427.56 443.889 422.492 443.889 416.24C443.889 409.988 357.082 404.92 249.999 404.92C142.917 404.92 56.1094 409.988 56.1094 416.24C56.1094 422.492 142.917 427.56 249.999 427.56Z" fill="#F5F5F5"/>
<path d="M355.099 161.16H123.289V331.52H355.099V161.16Z" fill="#2979FF"/>
<path opacity="0.7" d="M355.099 161.16H123.289V331.52H355.099V161.16Z" fill="white"/>
<path d="M355.099 161.16H123.289V171.59H355.099V161.16Z" fill="#2979FF"/>
<path opacity="0.7" d="M348.689 169.19C350.241 169.19 351.499 167.932 351.499 166.38C351.499 164.828 350.241 163.57 348.689 163.57C347.137 163.57 345.879 164.828 345.879 166.38C345.879 167.932 347.137 169.19 348.689 169.19Z" fill="white"/>
<path opacity="0.7" d="M340.49 169.19C342.042 169.19 343.3 167.932 343.3 166.38C343.3 164.828 342.042 163.57 340.49 163.57C338.938 163.57 337.68 164.828 337.68 166.38C337.68 167.932 338.938 169.19 340.49 169.19Z" fill="white"/>
<path opacity="0.7" d="M332.289 169.19C333.84 169.19 335.099 167.932 335.099 166.38C335.099 164.828 333.84 163.57 332.289 163.57C330.737 163.57 329.479 164.828 329.479 166.38C329.479 167.932 330.737 169.19 332.289 169.19Z" fill="white"/>
<path opacity="0.1" d="M196.488 174.72H125.238V327.07H196.488V174.72Z" fill="black"/>
<path opacity="0.1" d="M198.479 327.08H353.639V174.73L198.479 174.73L198.479 327.08Z" fill="black"/>
<path opacity="0.2" d="M323.149 186.2H229.689V252.81H323.149V186.2Z" fill="black"/>
<path d="M319.21 181.27H225.75V247.88H319.21V181.27Z" fill="#2979FF"/>
<path opacity="0.5" d="M319.22 181.27H225.75V247.88H319.22V181.27Z" fill="white"/>
<path opacity="0.7" d="M317.831 193.5H227.131V246.49H317.831V193.5Z" fill="white"/>
<path d="M319.21 181.27H225.75V191.7H319.21V181.27Z" fill="#2979FF"/>
<path opacity="0.7" d="M312.81 189.3C314.362 189.3 315.62 188.042 315.62 186.49C315.62 184.938 314.362 183.68 312.81 183.68C311.258 183.68 310 184.938 310 186.49C310 188.042 311.258 189.3 312.81 189.3Z" fill="white"/>
<path opacity="0.7" d="M304.611 189.3C306.163 189.3 307.421 188.042 307.421 186.49C307.421 184.938 306.163 183.68 304.611 183.68C303.059 183.68 301.801 184.938 301.801 186.49C301.801 188.042 303.059 189.3 304.611 189.3Z" fill="white"/>
<path opacity="0.7" d="M299.21 186.49C299.21 187.046 299.045 187.589 298.736 188.051C298.428 188.513 297.989 188.873 297.475 189.086C296.962 189.299 296.397 189.354 295.852 189.246C295.307 189.138 294.806 188.87 294.413 188.477C294.02 188.084 293.752 187.583 293.644 187.038C293.535 186.493 293.591 185.928 293.804 185.415C294.016 184.901 294.377 184.462 294.839 184.154C295.301 183.845 295.844 183.68 296.4 183.68C296.769 183.679 297.135 183.75 297.477 183.891C297.818 184.032 298.129 184.239 298.39 184.5C298.651 184.761 298.858 185.072 298.999 185.413C299.139 185.755 299.211 186.121 299.21 186.49Z" fill="white"/>
<path opacity="0.2" d="M227.131 233.29L252.891 217.82L271.681 228.08L300.461 209.91L317.831 222.86V246.49H227.131V233.29Z" fill="#2979FF"/>
<path d="M253.41 207.59C253.41 208.974 253 210.328 252.23 211.479C251.461 212.63 250.368 213.527 249.089 214.057C247.81 214.587 246.402 214.726 245.045 214.455C243.687 214.185 242.439 213.519 241.46 212.54C240.481 211.561 239.815 210.313 239.545 208.956C239.275 207.598 239.413 206.19 239.943 204.911C240.473 203.632 241.37 202.539 242.521 201.77C243.672 201.001 245.026 200.59 246.41 200.59C248.267 200.59 250.047 201.328 251.36 202.64C252.673 203.953 253.41 205.733 253.41 207.59Z" fill="white"/>
<path opacity="0.2" d="M235.67 239.48H225.75V247.88H235.67V239.48Z" fill="black"/>
<path opacity="0.2" d="M336.45 284.23H242.99V331.26H336.45V284.23Z" fill="black"/>
<path d="M341.271 286.57H247.811V353.18H341.271V286.57Z" fill="#2979FF"/>
<path opacity="0.5" d="M341.271 286.57H247.811V353.18H341.271V286.57Z" fill="white"/>
<path opacity="0.7" d="M339.889 298.8H249.189V351.79H339.889V298.8Z" fill="white"/>
<path d="M289.72 306.23L282.53 327.91H278.26L272.9 311.91L267.45 327.91H263.15L256 306.23H260.18L265.57 322.7L271.18 306.23H274.89L280.37 322.8L285.92 306.23H289.72Z" fill="#263238"/>
<path d="M341.271 286.57H247.811V297H341.271V286.57Z" fill="#2979FF"/>
<path opacity="0.7" d="M337.681 291.79C337.681 292.346 337.516 292.889 337.207 293.351C336.898 293.813 336.459 294.173 335.946 294.386C335.432 294.599 334.867 294.654 334.322 294.546C333.777 294.438 333.277 294.17 332.884 293.777C332.491 293.384 332.223 292.883 332.115 292.338C332.006 291.793 332.062 291.228 332.274 290.715C332.487 290.201 332.847 289.762 333.309 289.454C333.771 289.145 334.315 288.98 334.871 288.98C335.616 288.98 336.331 289.276 336.858 289.803C337.384 290.33 337.681 291.045 337.681 291.79Z" fill="white"/>
<path opacity="0.7" d="M329.47 291.79C329.47 292.346 329.305 292.889 328.996 293.351C328.687 293.813 328.248 294.173 327.735 294.386C327.222 294.599 326.656 294.654 326.111 294.546C325.566 294.438 325.066 294.17 324.673 293.777C324.28 293.384 324.012 292.883 323.904 292.338C323.795 291.793 323.851 291.228 324.064 290.715C324.276 290.201 324.636 289.762 325.098 289.454C325.561 289.145 326.104 288.98 326.66 288.98C327.405 288.98 328.12 289.276 328.647 289.803C329.174 290.33 329.47 291.045 329.47 291.79Z" fill="white"/>
<path opacity="0.7" d="M321.27 291.79C321.27 292.346 321.106 292.889 320.797 293.351C320.488 293.813 320.049 294.173 319.536 294.386C319.022 294.599 318.457 294.654 317.912 294.546C317.367 294.438 316.866 294.17 316.473 293.777C316.08 293.384 315.813 292.883 315.704 292.338C315.596 291.793 315.652 291.228 315.864 290.715C316.077 290.201 316.437 289.762 316.899 289.454C317.361 289.145 317.905 288.98 318.46 288.98C319.206 288.98 319.92 289.276 320.447 289.803C320.974 290.33 321.27 291.045 321.27 291.79Z" fill="white"/>
<path d="M333.12 306.73H293.99V307.73H333.12V306.73Z" fill="#263238"/>
<path d="M333.12 311.88H293.99V312.88H333.12V311.88Z" fill="#263238"/>
<path d="M333.12 317.03H293.99V318.03H333.12V317.03Z" fill="#263238"/>
<path d="M333.12 322.18H293.99V323.18H333.12V322.18Z" fill="#263238"/>
<path d="M333.12 327.34H293.99V328.34H333.12V327.34Z" fill="#263238"/>
<path d="M333.111 332.49H255.961V333.49H333.111V332.49Z" fill="#263238"/>
<path d="M333.111 337.64H255.961V338.64H333.111V337.64Z" fill="#263238"/>
<path d="M333.111 342.79H255.961V343.79H333.111V342.79Z" fill="#263238"/>
<path opacity="0.2" d="M230.28 248.88H136.82V315.49H230.28V248.88Z" fill="black"/>
<path d="M234.29 241.87H140.83V308.48H234.29V241.87Z" fill="#2979FF"/>
<path opacity="0.5" d="M234.29 241.87H140.83V308.48H234.29V241.87Z" fill="white"/>
<path opacity="0.7" d="M232.911 254.1H142.211V307.09H232.911V254.1Z" fill="white"/>
<path d="M177.141 274.76L162.721 280.15L177.141 285.54V289.88L157.881 282.41V277.89L177.141 270.42V274.76Z" fill="#263238"/>
<path d="M192.341 259.59H197.001L183.231 299H178.561L192.341 259.59Z" fill="#263238"/>
<path d="M217.28 277.89V282.41L198 289.88V285.54L212.42 280.15L198 274.76V270.42L217.28 277.89Z" fill="#263238"/>
<path d="M234.29 241.87H140.83V252.3H234.29V241.87Z" fill="#2979FF"/>
<path opacity="0.7" d="M230.69 247.09C230.69 247.646 230.525 248.19 230.216 248.652C229.907 249.115 229.467 249.475 228.953 249.687C228.439 249.899 227.874 249.954 227.328 249.845C226.783 249.736 226.282 249.467 225.89 249.073C225.497 248.679 225.23 248.178 225.123 247.632C225.016 247.086 225.073 246.521 225.287 246.008C225.501 245.494 225.863 245.056 226.326 244.749C226.79 244.441 227.334 244.278 227.89 244.28C228.259 244.28 228.624 244.353 228.964 244.494C229.305 244.635 229.614 244.843 229.874 245.104C230.134 245.365 230.34 245.675 230.48 246.015C230.62 246.356 230.692 246.721 230.69 247.09Z" fill="white"/>
<path opacity="0.7" d="M222.491 247.09C222.491 247.646 222.326 248.189 222.018 248.651C221.709 249.113 221.27 249.473 220.756 249.686C220.243 249.899 219.678 249.954 219.133 249.846C218.588 249.738 218.087 249.47 217.694 249.077C217.301 248.684 217.034 248.183 216.925 247.638C216.817 247.093 216.872 246.528 217.085 246.015C217.298 245.501 217.658 245.062 218.12 244.754C218.582 244.445 219.125 244.28 219.681 244.28C220.426 244.28 221.141 244.576 221.668 245.103C222.195 245.63 222.491 246.345 222.491 247.09Z" fill="white"/>
<path opacity="0.7" d="M214.29 247.09C214.29 247.646 214.125 248.189 213.816 248.651C213.508 249.113 213.069 249.473 212.555 249.686C212.042 249.899 211.477 249.954 210.932 249.846C210.387 249.738 209.886 249.47 209.493 249.077C209.1 248.684 208.832 248.183 208.724 247.638C208.615 247.093 208.671 246.528 208.884 246.015C209.096 245.501 209.457 245.062 209.919 244.754C210.381 244.445 210.924 244.28 211.48 244.28C212.225 244.28 212.94 244.576 213.467 245.103C213.994 245.63 214.29 246.345 214.29 247.09Z" fill="white"/>
<path d="M335.001 180.78C335.261 181.34 335.181 181.93 334.811 182.1C334.441 182.27 333.951 181.95 333.691 181.4C333.431 180.85 333.511 180.26 333.881 180.09C334.251 179.92 334.761 180.23 335.001 180.78Z" fill="#263238"/>
<path d="M335.251 181.9C335.379 183.911 335.231 185.93 334.811 187.9C335.317 187.994 335.838 187.977 336.337 187.849C336.836 187.721 337.302 187.486 337.701 187.16L335.251 181.9Z" fill="#DE5753"/>
<path d="M335.62 176.75C335.675 176.708 335.717 176.651 335.741 176.585C335.764 176.52 335.768 176.449 335.752 176.381C335.737 176.314 335.701 176.252 335.651 176.204C335.601 176.156 335.538 176.123 335.47 176.11C334.911 175.99 334.332 176.005 333.78 176.155C333.229 176.305 332.721 176.584 332.3 176.97C332.234 177.039 332.197 177.131 332.199 177.227C332.201 177.323 332.241 177.414 332.31 177.48C332.379 177.546 332.471 177.583 332.567 177.581C332.663 177.579 332.754 177.539 332.82 177.47C333.159 177.17 333.564 176.955 334.002 176.842C334.44 176.729 334.898 176.721 335.34 176.82C335.389 176.829 335.439 176.827 335.487 176.815C335.536 176.803 335.581 176.781 335.62 176.75Z" fill="#263238"/>
<path d="M352.452 175.5C355.142 180.5 360.771 189.03 366.132 189.42C366.132 189.42 368.542 194.74 360.572 201.3C351.812 208.52 352.801 200.4 352.801 200.4C356.641 195.32 353.601 191.87 350.021 189.22L352.452 175.5Z" fill="#E4897B"/>
<path d="M353.001 171C355.761 178 357.741 182 355.921 187.08C353.201 194.76 343.331 195.57 338.531 189.52C334.201 184.08 330.411 173.52 335.821 167.7C337.007 166.409 338.503 165.442 340.168 164.893C341.833 164.343 343.61 164.228 345.332 164.558C347.053 164.889 348.662 165.654 350.004 166.782C351.346 167.909 352.378 169.361 353.001 171Z" fill="#E4897B"/>
<path d="M357.361 182.5C355.931 185.77 343.361 187.72 339.861 179.13C339.861 179.13 333.331 177.53 330.331 172.65C327.331 167.77 329.181 163.65 333.261 162.21C336.851 160.89 337.961 162.57 337.961 162.57C337.961 162.57 353.131 153.89 354.351 161.76C364.611 163.75 359.161 178.43 357.361 182.5Z" fill="#263238"/>
<path d="M343.211 178.58C343.887 180.328 343.972 182.25 343.451 184.05C342.731 186.41 340.681 186.12 339.451 184.24C338.351 182.55 337.401 179.24 338.801 177.5C340.201 175.76 342.371 176.49 343.211 178.58Z" fill="#E4897B"/>
<path d="M368.461 189.91C367.461 186.91 366.281 183.48 362.671 184.68C359.501 185.68 350.251 191.44 349.541 193.42C350.643 194.445 351.463 195.736 351.921 197.17L368.461 189.91Z" fill="#2979FF"/>
<path opacity="0.5" d="M368.461 189.91C367.461 186.91 366.281 183.48 362.671 184.68C359.501 185.68 350.251 191.44 349.541 193.42C350.643 194.445 351.463 195.736 351.921 197.17L368.461 189.91Z" fill="#FAFAFA"/>
<path d="M382.371 189.22C387 191.237 391.508 193.52 395.871 196.06C400.33 198.604 404.583 201.493 408.591 204.7C409.682 205.629 410.708 206.631 411.661 207.7C412.571 208.7 413.391 209.7 414.221 210.64C415.831 212.64 417.341 214.64 418.821 216.64C421.741 220.64 424.451 224.79 426.981 229.08L422.791 232.24L412.711 221.75C411.041 220.01 409.351 218.31 407.711 216.66C406.871 215.85 406.031 215.04 405.191 214.3C404.437 213.611 403.646 212.964 402.821 212.36C401.011 211.13 398.981 209.89 396.981 208.72C394.981 207.55 392.901 206.42 390.801 205.31C386.631 203.13 382.301 200.97 378.111 199L382.371 189.22Z" fill="#DC897C"/>
<path d="M426.76 241.25L424.23 236.74L432 234.4C432 234.4 433.56 238.04 431.85 240.97L426.76 241.25Z" fill="#E4897B"/>
<path d="M421.381 230.13L426.341 228.52L431.971 234.4L424.231 236.74L421.381 230.13Z" fill="#E4897B"/>
<path d="M377.191 186.44C383.451 183.97 397.381 194.72 397.381 194.72L392.201 210.45C387.332 209.387 382.824 207.074 379.121 203.74C372.291 197.77 370.781 189 377.191 186.44Z" fill="#263238"/>
<path opacity="0.2" d="M386.261 198.26C390.261 201.63 392.431 204.36 392.431 209.75L392.201 210.45C387.33 209.386 382.819 207.074 379.111 203.74C378.711 203.38 378.321 203.01 377.951 202.64L386.261 198.26Z" fill="black"/>
<path d="M402.301 246.24L362.611 253.35C361.001 250 357.561 238 351.001 223.51C349.231 219.58 347.221 215.51 345.001 211.31C342.467 206.624 339.694 202.071 336.691 197.67C340.83 196.126 345.062 194.843 349.361 193.83C354.361 192.71 370.031 186.71 374.631 186.26C380.711 185.68 381.381 188.33 381.381 188.33C381.381 188.33 389.531 196.9 402.301 246.24Z" fill="#263238"/>
<path opacity="0.2" d="M351 223.51C349.23 219.58 347.22 215.51 345 211.31L347.58 209.7C347.58 209.7 353.58 218.77 351 223.51Z" fill="black"/>
<path d="M301.79 217.77L296.67 217.01L297.26 225.08C297.26 225.08 301.26 225.24 303.35 222.59L301.79 217.77Z" fill="#E4897B"/>
<path d="M289.471 216.43L291.361 223.36L297.261 225.08L296.681 217.01L289.471 216.43Z" fill="#E4897B"/>
<path d="M343 206.21C342.87 207 342.75 207.58 342.62 208.21C342.49 208.84 342.34 209.49 342.18 210.13C341.87 211.4 341.54 212.65 341.18 213.91C340.433 216.447 339.521 218.932 338.45 221.35C337.342 223.875 336.003 226.292 334.45 228.57C332.725 231.092 330.556 233.281 328.05 235.03C326.638 235.979 325.095 236.717 323.47 237.22L322.84 237.39L322.52 237.48L322.03 237.58C321.422 237.685 320.806 237.728 320.19 237.71C319.193 237.689 318.204 237.531 317.25 237.24C315.755 236.774 314.318 236.137 312.97 235.34C311.781 234.648 310.639 233.88 309.55 233.04C305.493 229.886 301.839 226.245 298.67 222.2L302.36 218.46C306.124 221.218 310.04 223.762 314.09 226.08C315.09 226.61 316.09 227.08 316.98 227.47C317.781 227.827 318.625 228.083 319.49 228.23C319.711 228.271 319.939 228.271 320.16 228.23H320.11L320.23 228.18C320.312 228.154 320.392 228.124 320.47 228.09C321.156 227.809 321.799 227.431 322.38 226.97C323.785 225.8 324.982 224.4 325.92 222.83C327.04 221.037 327.994 219.146 328.77 217.18C329.613 215.115 330.35 213.009 330.98 210.87C331.307 209.79 331.607 208.7 331.88 207.6L332.27 205.96C332.39 205.44 332.52 204.83 332.61 204.41L343 206.21Z" fill="#DC897C"/>
<path d="M348.73 205.71C353.28 214.22 339.19 227.42 339.19 227.42L325.24 217.73C327.199 212.169 329.69 206.811 332.68 201.73C338.26 192.58 345.26 199.23 348.73 205.71Z" fill="#263238"/>
<path d="M345.28 409.5L337.17 410.35L336.76 405.65L335.65 392.86L343.76 392L344.99 406.13L345.28 409.5Z" fill="#E4897B"/>
<path d="M415.76 408.47H407.9L407.51 406.7L407.46 406.48L405.01 395.13L404.96 394.9L404.02 390.55H411.89L415.76 408.47Z" fill="#E4897B"/>
<path opacity="0.2" d="M343.76 392L344.99 406.13L336.76 405.65L335.65 392.86L343.76 392Z" fill="black"/>
<path opacity="0.2" d="M415.53 407.48H415.52L407.47 406.48H407.46L405.08 395.53H405.09L413.08 396.15L415.46 407.13L415.53 407.48Z" fill="black"/>
<path d="M406.81 408H416.36C416.517 407.999 416.669 408.052 416.791 408.151C416.913 408.249 416.998 408.387 417.03 408.54L418.58 415.54C418.612 415.71 418.607 415.885 418.564 416.052C418.521 416.219 418.442 416.375 418.332 416.509C418.223 416.643 418.085 416.75 417.929 416.825C417.773 416.899 417.603 416.939 417.43 416.94C414.34 416.89 412.09 416.7 408.21 416.7C405.82 416.7 398.61 416.95 395.31 416.95C392.01 416.95 391.58 413.69 392.93 413.39C398.99 412.07 403.55 410.24 405.49 408.5C405.849 408.169 406.322 407.99 406.81 408Z" fill="#263238"/>
<path d="M336.31 407.75H345.86C346.017 407.749 346.169 407.802 346.291 407.901C346.413 407.999 346.498 408.137 346.53 408.29L348.08 415.29C348.112 415.46 348.107 415.635 348.064 415.802C348.021 415.969 347.942 416.125 347.832 416.259C347.723 416.393 347.585 416.5 347.429 416.575C347.273 416.649 347.103 416.689 346.93 416.69C343.84 416.64 341.59 416.45 337.71 416.45C335.32 416.45 328.11 416.7 324.81 416.7C321.51 416.7 321.08 413.44 322.43 413.14C328.49 411.82 333.05 409.99 334.99 408.25C335.349 407.919 335.822 407.74 336.31 407.75Z" fill="#263238"/>
<path d="M334.91 402.47L346.51 402.85C342.29 325.29 340.32 321.33 377.96 284.7C378.84 295.78 379.83 307.27 380.8 316.85C381.41 322.78 381.6 327.96 382.58 331.76C389.28 357.45 405.41 402.91 405.41 402.91L416.73 403.42C416.73 403.42 402.56 341.11 401.1 320.8C399.19 294.16 405.41 265.32 401.87 244.47L362.33 251.18C326.47 303.66 319.9 315 334.91 402.47Z" fill="#2979FF"/>
<path opacity="0.3" d="M334.91 402.47L346.51 402.85C342.29 325.29 340.32 321.33 377.96 284.7C378.84 295.78 379.83 307.27 380.8 316.85C381.41 322.78 381.6 327.96 382.58 331.76C389.28 357.45 405.41 402.91 405.41 402.91L416.73 403.42C416.73 403.42 402.56 341.11 401.1 320.8C399.19 294.16 405.41 265.32 401.87 244.47L362.33 251.18C326.47 303.66 319.9 315 334.91 402.47Z" fill="white"/>
<path opacity="0.2" d="M378 284.65C378.88 295.73 379.87 307.25 380.84 316.83C382.22 303 384 293.14 384 293.14C384 293.14 385.63 291.8 390.11 284.65C394.59 277.5 390.11 264.15 390.11 264.15C390.21 276.55 378 284.65 378 284.65Z" fill="black"/>
<path d="M333.609 401.22L334.179 404.47H347.799V401.47L333.609 401.22Z" fill="#2979FF"/>
<path d="M404.07 402.47L405.38 405.47H417.78L417.55 402.47H404.07Z" fill="#2979FF"/>
<path opacity="0.7" d="M333.609 401.22L334.179 404.47H347.799V401.47L333.609 401.22Z" fill="white"/>
<path opacity="0.7" d="M404.07 402.47L405.38 405.47H417.78L417.55 402.47H404.07Z" fill="white"/>
<path d="M111 321L113.9 321.23C114.9 321.3 115.9 321.34 116.9 321.37C118.9 321.45 120.9 321.46 122.9 321.43C124.9 321.4 126.9 321.25 128.8 321.06C130.703 320.858 132.593 320.544 134.46 320.12L133.61 320.47C133.97 320.26 134.27 320.14 134.69 319.86C135.11 319.58 135.49 319.37 135.92 319.05C136.76 318.47 137.61 317.82 138.47 317.17C140.18 315.83 141.91 314.45 143.62 313.03L148.78 308.74L153.97 304.43C154.423 304.062 154.994 303.872 155.576 303.895C156.159 303.918 156.714 304.152 157.136 304.554C157.559 304.956 157.821 305.498 157.873 306.078C157.925 306.659 157.764 307.239 157.42 307.71C156.04 309.57 154.59 311.32 153.14 313.1C151.69 314.88 150.14 316.57 148.6 318.27C147.06 319.97 145.43 321.64 143.73 323.27C142.86 324.08 141.99 324.89 141.05 325.7C140.61 326.1 140.05 326.5 139.55 326.89C139.05 327.28 138.36 327.71 137.77 328.1C137.616 328.198 137.452 328.278 137.28 328.34L136.92 328.45C134.694 329.181 132.418 329.749 130.11 330.15C127.862 330.535 125.596 330.799 123.32 330.94C121.07 331.09 118.82 331.12 116.58 331.07C115.46 331.03 114.34 330.97 113.22 330.89C112.08 330.82 111.02 330.72 109.77 330.55C108.503 330.417 107.342 329.787 106.54 328.798C105.738 327.809 105.362 326.541 105.495 325.275C105.627 324.009 106.258 322.847 107.247 322.045C108.236 321.243 109.503 320.867 110.77 321H111Z" fill="#CE7A63"/>
<path d="M124.08 335.5L120.82 336.31L116.57 337.31C116.57 337.31 115.67 336.49 114.31 335.22C110.88 332.03 104.54 325.98 102.48 323.12C108.31 319.32 111.02 320.82 122.22 320.92C125.05 324.22 124.08 335.5 124.08 335.5Z" fill="#2979FF"/>
<path opacity="0.2" d="M120.821 336.31L116.571 337.31C116.571 337.31 115.671 336.49 114.311 335.22C114.163 333.644 114.133 332.06 114.221 330.48C116.944 331.735 119.239 333.762 120.821 336.31Z" fill="black"/>
<path d="M79.5 289.81C79.5 289.81 83.88 281.71 95.67 282.48C107.46 283.25 111.74 302.94 107.9 311.38C99.0986 313.189 90.5656 316.119 82.51 320.1C82.51 320.1 73.8 307.18 74.39 298.2C74.98 289.22 79.5 289.81 79.5 289.81Z" fill="#263238"/>
<path d="M120.74 370.41L125.52 378.79C138.33 375.79 179.4 369.54 184.45 383.63C190.72 401.14 145.45 415.1 120.35 415.96C95.2496 416.82 73.4096 410.84 89.2596 374.29L120.74 370.41Z" fill="#263238"/>
<path opacity="0.2" d="M120.74 370.41L125.52 378.79C138.33 375.79 179.4 369.54 184.45 383.63C190.72 401.14 145.45 415.1 120.35 415.96C95.2496 416.82 73.4096 410.84 89.2596 374.29L120.74 370.41Z" fill="black"/>
<path d="M177.19 408.39C177.161 408.407 177.128 408.415 177.095 408.415C177.061 408.415 177.029 408.407 177 408.39C176.983 408.367 176.975 408.339 176.975 408.31C176.975 408.281 176.983 408.253 177 408.23C177.08 407.95 177.91 405.54 178.75 405.29C178.838 405.269 178.93 405.271 179.018 405.296C179.105 405.32 179.185 405.367 179.25 405.43C179.366 405.527 179.455 405.653 179.507 405.795C179.56 405.937 179.575 406.091 179.55 406.24C179.411 406.693 179.135 407.091 178.76 407.38C178.272 407.769 177.746 408.107 177.19 408.39ZM177.4 407.92C178.183 407.579 178.818 406.969 179.19 406.2C179.209 406.098 179.2 405.992 179.163 405.895C179.126 405.798 179.062 405.713 178.98 405.65C178.956 405.622 178.924 405.601 178.889 405.59C178.853 405.579 178.815 405.579 178.78 405.59C178.71 405.618 178.645 405.659 178.59 405.71C178.063 406.369 177.66 407.118 177.4 407.92Z" fill="#263238"/>
<path d="M177.141 408.42C177.114 408.429 177.085 408.429 177.057 408.42C177.03 408.411 177.007 408.394 176.991 408.37C176.911 408.3 175.751 406.84 175.941 405.86C175.993 405.614 176.136 405.396 176.341 405.25C176.429 405.166 176.544 405.114 176.665 405.103C176.787 405.092 176.909 405.123 177.011 405.19C177.621 405.62 177.541 407.57 177.241 408.31V408.39C177.211 408.409 177.176 408.42 177.141 408.42ZM176.491 405.55C176.385 405.641 176.311 405.764 176.281 405.9C176.319 406.633 176.592 407.335 177.061 407.9C177.251 407.07 177.191 405.7 176.831 405.45C176.831 405.45 176.721 405.37 176.541 405.5L176.491 405.55Z" fill="#263238"/>
<path d="M133.11 412.49C133.129 412.463 133.155 412.442 133.184 412.428C133.214 412.413 133.247 412.407 133.28 412.41C133.309 412.414 133.336 412.429 133.356 412.451C133.376 412.472 133.388 412.5 133.39 412.53C133.46 412.81 133.9 415.32 133.29 415.95C133.223 416.012 133.14 416.056 133.051 416.077C132.961 416.098 132.868 416.096 132.78 416.07C132.631 416.041 132.492 415.973 132.378 415.873C132.264 415.772 132.178 415.644 132.13 415.5C132.027 415.041 132.073 414.561 132.26 414.13C132.493 413.559 132.778 413.01 133.11 412.49ZM133.11 413C132.59 413.677 132.331 414.518 132.38 415.37C132.408 415.471 132.466 415.562 132.546 415.63C132.626 415.698 132.725 415.74 132.83 415.75C132.859 415.771 132.894 415.783 132.93 415.783C132.966 415.783 133.001 415.771 133.03 415.75C133.083 415.696 133.123 415.631 133.15 415.56C133.31 414.714 133.31 413.846 133.15 413H133.11Z" fill="#263238"/>
<path d="M149.53 399.81L139.21 403.48L134.26 405.25L135.53 410.67L140.32 409.64L152.04 407.15L149.53 399.81Z" fill="#EBB376"/>
<path d="M136.881 410.92L136.011 404.53C136 404.445 135.972 404.362 135.928 404.288C135.885 404.214 135.827 404.149 135.758 404.098C135.689 404.046 135.61 404.009 135.526 403.989C135.443 403.969 135.356 403.966 135.271 403.98L132.121 404.51C132.121 404.51 127.821 404.91 126.971 406.01C124.481 409.23 126.041 423.43 127.701 423.93C128.311 424.11 128.951 423.27 129.211 422.7C130.051 420.87 131.531 416.09 132.211 414.57C133.051 412.8 135.361 411.93 136.401 411.62C136.553 411.582 136.685 411.49 136.774 411.361C136.862 411.232 136.9 411.075 136.881 410.92Z" fill="#2979FF"/>
<path d="M133.14 412.45C133.163 412.434 133.191 412.425 133.22 412.425C133.248 412.425 133.276 412.434 133.3 412.45C133.4 412.45 135.12 413.19 135.43 414.14C135.47 414.259 135.485 414.386 135.475 414.511C135.464 414.637 135.428 414.759 135.37 414.87C135.334 414.986 135.26 415.086 135.16 415.155C135.061 415.224 134.941 415.258 134.82 415.25C134.08 415.16 133.2 413.42 133.1 412.63V412.55C133.1 412.55 133.11 412.46 133.14 412.45ZM135.14 414.63C135.185 414.5 135.185 414.36 135.14 414.23C134.94 413.63 133.98 413.09 133.49 412.85C133.72 413.67 134.44 414.85 134.87 414.85C134.87 414.85 135.01 414.85 135.1 414.67V414.6L135.14 414.63Z" fill="#263238"/>
<path opacity="0.2" d="M149.531 399.81L139.211 403.48L140.321 409.64L152.041 407.15L149.531 399.81Z" fill="black"/>
<path d="M142.15 410.57L145.12 410.79L143.13 400.58L139.77 402.44L142.15 410.57Z" fill="#2979FF"/>
<path opacity="0.6" d="M142.15 410.57L145.12 410.79L143.13 400.58L139.77 402.44L142.15 410.57Z" fill="white"/>
<path opacity="0.2" d="M99.1191 370.91L114.569 388C114.569 388 131.649 387.63 152.389 397.76C152.389 397.76 174.649 388.57 176.689 380.93C179.369 370.93 125.519 378.75 125.519 378.75L99.1191 370.91Z" fill="black"/>
<path d="M126.141 374.73L124.221 373.35C123.867 373.092 123.455 372.923 123.022 372.857C122.589 372.791 122.146 372.83 121.731 372.97L117.791 374.3C117.014 374.56 116.311 375.003 115.74 375.591C115.169 376.179 114.748 376.896 114.511 377.68L114.211 378.68C117.211 381.19 122.361 381.68 122.361 381.68L123.801 381.98C124.096 382.051 124.402 382.063 124.701 382.015C125.001 381.966 125.288 381.859 125.546 381.699C125.803 381.539 126.027 381.33 126.203 381.082C126.379 380.835 126.504 380.556 126.571 380.26L127.211 377.41C127.311 376.908 127.263 376.387 127.073 375.912C126.883 375.436 126.559 375.026 126.141 374.73Z" fill="#CE7A63"/>
<path d="M166.859 380.9V383.44C166.859 384.09 166.089 384.36 165.449 384.36H114.719C114.069 384.36 113.279 384.09 113.279 383.44V380.9H166.859Z" fill="#263238"/>
<path opacity="0.4" d="M166.859 380.9V383.44C166.859 384.09 166.089 384.36 165.449 384.36H114.719C114.069 384.36 113.279 384.09 113.279 383.44V380.9H166.859Z" fill="white"/>
<path opacity="0.2" d="M166.86 380.9V383.44C166.86 384.09 166.09 384.36 165.45 384.36H132C131.35 384.36 130.57 384.09 130.57 383.44V380.9H166.86Z" fill="black"/>
<path d="M175.34 354.55L169.34 381.94C169.226 382.384 168.968 382.778 168.606 383.058C168.243 383.339 167.798 383.491 167.34 383.49H134.34C134.134 383.485 133.933 383.433 133.751 383.337C133.569 383.241 133.412 383.105 133.292 382.938C133.172 382.772 133.092 382.579 133.059 382.377C133.025 382.174 133.039 381.966 133.1 381.77L139.1 354.59C139.224 354.168 139.492 353.803 139.857 353.558C140.222 353.313 140.662 353.204 141.1 353.25H174.1C175 353.25 175.54 353.65 175.34 354.55Z" fill="#263238"/>
<path opacity="0.4" d="M175.34 354.55L169.34 381.94C169.227 382.384 168.969 382.778 168.606 383.058C168.244 383.339 167.799 383.491 167.34 383.49H135.48C135.274 383.487 135.072 383.435 134.889 383.34C134.706 383.245 134.547 383.109 134.426 382.942C134.305 382.775 134.224 382.583 134.19 382.379C134.156 382.176 134.17 381.967 134.23 381.77L140.23 354.59C140.354 354.168 140.622 353.803 140.988 353.558C141.353 353.313 141.793 353.204 142.23 353.25H174.1C175 353.25 175.54 353.65 175.34 354.55Z" fill="white"/>
<path opacity="0.2" d="M159.08 368.47C159.08 370.81 156.57 372.72 154.72 372.72C152.87 372.72 151.79 370.81 152.31 368.47C152.83 366.13 154.67 364.29 156.48 364.22C155.95 366.57 157.08 368.47 158.91 368.47H159.08Z" fill="black"/>
<path d="M156.689 411.54L167.489 413.32L172.679 414.18L174.189 408.82L169.499 407.39L158.039 403.9L156.689 411.54Z" fill="#EBB376"/>
<path d="M173.13 407.94L170.8 413.94C170.77 414.019 170.755 414.104 170.758 414.189C170.761 414.274 170.781 414.357 170.816 414.435C170.851 414.512 170.902 414.581 170.964 414.639C171.027 414.697 171.1 414.741 171.18 414.77L174.18 415.84C174.18 415.84 178.18 417.56 179.42 417.01C183.16 415.4 188.67 402.23 187.42 401.01C186.98 400.55 186.01 401.01 185.5 401.35C183.88 402.54 180.27 406.01 178.91 406.99C177.31 408.13 174.91 407.78 173.82 407.55C173.678 407.528 173.532 407.555 173.407 407.625C173.282 407.696 173.184 407.807 173.13 407.94Z" fill="#2979FF"/>
<path opacity="0.2" d="M156.689 411.54L167.489 413.32L169.499 407.39L158.039 403.9L156.689 411.54Z" fill="black"/>
<path d="M167.641 406.27C167.641 406.27 123.641 381.51 108.391 382.21C93.1407 382.91 91.0006 396.32 97.2706 404.7C103.541 413.08 115.121 415.13 115.121 415.13C115.121 415.13 107.241 403.99 108.381 400.86C109.521 397.73 113.981 402.1 113.981 402.1C113.981 402.1 141.691 411.05 165.981 413.1L167.641 406.27Z" fill="#263238"/>
<path d="M168.35 405.59L165.86 403.91L162.65 413.75H166.5L168.35 405.59Z" fill="#2979FF"/>
<path opacity="0.6" d="M168.35 405.59L165.86 403.91L162.65 413.75H166.5L168.35 405.59Z" fill="white"/>
<path d="M120.741 370.41L89.2608 374.29C89.0865 370.983 88.6653 367.694 88.0008 364.45C87.0149 359.844 85.7288 355.308 84.1508 350.87C82.6708 346.61 80.7908 341.76 78.4108 336.11C77.9486 335.108 77.7163 334.015 77.7311 332.911C77.7459 331.808 78.0074 330.722 78.4963 329.732C78.9853 328.743 79.6894 327.875 80.557 327.193C81.4247 326.511 82.4339 326.032 83.5108 325.79C84.7508 325.52 86.0508 325.25 87.4008 325.01C92.1206 324.09 96.8989 323.502 101.701 323.25C103.271 323.2 104.901 323.2 106.471 323.25C112.121 323.34 117.031 329.25 117.891 334.76C118.724 338.995 119.269 343.281 119.521 347.59C120.051 353.84 120.381 360.05 120.741 370.41Z" fill="#2979FF"/>
<path d="M86.4199 308.79C88.2399 313.24 90.7999 321.48 88.1899 324.91C88.1899 324.91 92.4699 323.72 102.42 328.3C104.63 324.13 102.49 323.15 102.49 323.15C97.1099 322.57 96.4899 318.79 96.6799 315.15L86.4199 308.79Z" fill="#CE7A63"/>
<path d="M100.33 327.39C97.3305 328.2 96.9505 332.92 96.9505 332.92C96.9505 332.92 88.9505 328.65 86.2305 325.28C87.0862 324.659 87.9074 323.991 88.6905 323.28C88.6905 323.28 98.3405 325.85 100.33 327.39Z" fill="white"/>
<path d="M103.17 326.55C103.17 326.55 105.89 326.93 107.3 330.55C107.17 323.76 103.89 323.01 103.89 323.01C102.997 322.641 101.998 322.62 101.09 322.95C101.798 323.219 102.392 323.724 102.771 324.38C103.15 325.036 103.291 325.802 103.17 326.55Z" fill="white"/>
<path opacity="0.2" d="M90.6107 311.38L96.6807 315.13C96.6202 315.987 96.6403 316.847 96.7407 317.7C94.7407 317.7 91.6107 315.86 90.9907 313.85C90.7136 313.057 90.5848 312.22 90.6107 311.38Z" fill="black"/>
<path d="M81.3594 300.05C83.6694 307.3 84.4894 310.41 89.1694 313.45C96.1694 318.02 104.609 314.11 104.519 306.45C104.429 299.54 100.669 288.83 92.7094 287.33C91.0129 286.948 89.2451 287.026 87.5891 287.557C85.9331 288.088 84.4493 289.053 83.2915 290.35C82.1337 291.648 81.344 293.231 81.0043 294.937C80.6645 296.642 80.7872 298.408 81.3594 300.05Z" fill="#CE7A63"/>
<path d="M90.9998 300.11C91.1598 300.73 91.6198 301.17 91.9998 301.11C92.3798 301.05 92.5898 300.46 92.4198 299.85C92.2498 299.24 91.7898 298.79 91.4198 298.85C91.0498 298.91 90.8298 299.5 90.9998 300.11Z" fill="#263238"/>
<path d="M98.7105 298.33C98.8805 298.95 99.3405 299.39 99.7105 299.33C100.08 299.27 100.29 298.68 100.13 298.07C99.9705 297.46 99.5005 297.01 99.1305 297.07C98.7605 297.13 98.5505 297.72 98.7105 298.33Z" fill="#263238"/>
<path d="M99 297.14L100.35 296.42C100.35 296.42 99.88 297.73 99 297.14Z" fill="#263238"/>
<path d="M96.7109 300.16C97.6413 301.463 98.7334 302.642 99.9609 303.67C99.7023 303.958 99.3815 304.183 99.0228 304.329C98.6642 304.474 98.2771 304.536 97.8909 304.51L96.7109 300.16Z" fill="#BA4D3C"/>
<path d="M95 307.49C95.3356 307.479 95.67 307.443 96 307.38C96.0237 307.376 96.0463 307.366 96.0661 307.352C96.0859 307.338 96.1025 307.32 96.1148 307.299C96.1271 307.279 96.1348 307.255 96.1374 307.231C96.14 307.207 96.1375 307.183 96.13 307.16C96.1249 307.124 96.1101 307.09 96.0872 307.062C96.0643 307.034 96.0341 307.012 96 307C95.2217 307.159 94.4176 307.142 93.6472 306.948C92.8768 306.754 92.16 306.389 91.55 305.88C91.5323 305.862 91.5113 305.848 91.4881 305.838C91.4649 305.829 91.4401 305.824 91.415 305.824C91.3898 305.824 91.365 305.829 91.3418 305.838C91.3186 305.848 91.2976 305.862 91.28 305.88C91.2469 305.915 91.2285 305.962 91.2285 306.01C91.2285 306.058 91.2469 306.105 91.28 306.14C92.3134 307.029 93.6367 307.51 95 307.49Z" fill="#263238"/>
<path d="M88.801 296.47C88.8502 296.466 88.8979 296.451 88.941 296.427C88.984 296.403 89.0215 296.37 89.051 296.33C89.3009 295.952 89.6412 295.642 90.0411 295.429C90.441 295.216 90.8879 295.107 91.341 295.11C91.3884 295.116 91.4365 295.111 91.482 295.097C91.5275 295.082 91.5693 295.058 91.6045 295.025C91.6397 294.993 91.6674 294.954 91.6858 294.909C91.7042 294.865 91.7128 294.818 91.711 294.77C91.7069 294.67 91.6675 294.575 91.5996 294.502C91.5318 294.429 91.4401 294.382 91.341 294.37C90.7671 294.359 90.1994 294.491 89.6896 294.755C89.1797 295.019 88.7437 295.405 88.421 295.88C88.3702 295.965 88.3533 296.065 88.3737 296.162C88.3941 296.258 88.4503 296.343 88.531 296.4C88.6088 296.457 88.7054 296.482 88.801 296.47Z" fill="#263238"/>
<path d="M100.789 293.64C100.835 293.642 100.882 293.634 100.925 293.617C100.968 293.599 101.007 293.573 101.039 293.54C101.107 293.471 101.146 293.377 101.146 293.28C101.146 293.183 101.107 293.089 101.039 293.02C100.63 292.579 100.126 292.237 99.5637 292.022C99.0019 291.807 98.3981 291.724 97.7991 291.78C97.7522 291.787 97.7073 291.803 97.6674 291.829C97.6275 291.855 97.5937 291.888 97.568 291.928C97.5424 291.968 97.5257 292.013 97.519 292.06C97.5122 292.107 97.5157 292.155 97.5291 292.2C97.5507 292.297 97.6078 292.383 97.6892 292.44C97.7705 292.497 97.8703 292.522 97.9691 292.51C98.4437 292.472 98.9208 292.542 99.3643 292.715C99.8078 292.888 100.206 293.16 100.529 293.51C100.6 293.58 100.691 293.625 100.789 293.64Z" fill="#263238"/>
<path d="M91.25 298.92L92.6 298.2C92.6 298.2 92.16 299.51 91.25 298.92Z" fill="#263238"/>
<path d="M84.0008 304.1C84.0008 304.1 88.6108 298.25 85.6208 291.56C85.6208 291.56 94.8308 285.07 101.341 294.37C101.341 294.37 100.061 285.37 90.0608 285.98C80.0608 286.59 71.8808 302.31 85.1208 309.53L84.0008 304.1Z" fill="#263238"/>
<path d="M80.4494 306.57C80.9867 307.165 81.636 307.647 82.3601 307.991C83.0843 308.334 83.8691 308.531 84.6695 308.57C86.7295 308.63 87.1395 306.51 86.0395 304.69C85.0395 303.06 82.7694 301.06 80.9494 301.86C79.1294 302.66 79.0694 305.06 80.4494 306.57Z" fill="#CE7A63"/>
<path d="M103.42 298.42C103.381 298.421 103.343 298.411 103.309 298.392C103.276 298.372 103.248 298.344 103.23 298.31C96.46 286.31 85.39 291.71 84.92 291.95C84.869 291.971 84.8121 291.972 84.7606 291.952C84.709 291.933 84.6665 291.895 84.6414 291.847C84.6163 291.798 84.6105 291.741 84.625 291.688C84.6395 291.635 84.6734 291.589 84.72 291.56C84.84 291.5 96.63 285.76 103.61 298.1C103.635 298.151 103.64 298.209 103.623 298.263C103.606 298.317 103.569 298.362 103.52 298.39C103.49 298.409 103.455 298.42 103.42 298.42Z" fill="#263238"/>
<path d="M162.649 302.77L162.249 304.77C162.177 305.146 162.016 305.499 161.779 305.8C161.543 306.101 161.238 306.341 160.889 306.5L157.579 308C156.927 308.294 156.215 308.43 155.5 308.395C154.786 308.36 154.09 308.156 153.469 307.8L152.689 307.34C153.119 303.93 156.089 300.56 156.089 300.56L156.829 299.5C156.976 299.28 157.164 299.09 157.384 298.943C157.603 298.796 157.85 298.694 158.11 298.643C158.369 298.592 158.636 298.592 158.895 298.645C159.154 298.698 159.401 298.802 159.619 298.95L161.729 300.39C162.1 300.653 162.384 301.018 162.548 301.441C162.711 301.865 162.747 302.327 162.649 302.77Z" fill="#CE7A63"/>
<path opacity="0.2" d="M88.0004 364.45C87.0144 359.844 85.7283 355.308 84.1504 350.87C86.8804 345.42 89.6004 340.79 89.6004 340.79C89.6004 340.79 99.3404 354.78 88.0004 364.45Z" fill="black"/>
<path d="M87.1601 339.84L87.8701 342.66C88.1301 343.66 88.4101 344.59 88.7001 345.56C89.2701 347.48 89.9101 349.39 90.5701 351.27C91.2301 353.15 92.0001 355 92.8101 356.75C93.6139 358.486 94.5154 360.176 95.5101 361.81L94.9001 361.12C95.2201 361.38 95.4301 361.64 95.8301 361.94C96.2301 362.24 96.5501 362.53 96.9901 362.84C97.8101 363.45 98.6901 364.06 99.5901 364.66C101.4 365.85 103.26 367.05 105.16 368.21L110.88 371.73L116.62 375.27C117.114 375.581 117.477 376.061 117.643 376.62C117.808 377.179 117.764 377.78 117.519 378.309C117.274 378.839 116.845 379.261 116.311 379.496C115.778 379.732 115.176 379.765 114.62 379.59C112.42 378.87 110.3 378.06 108.15 377.25C106 376.44 103.9 375.53 101.8 374.61C99.7001 373.69 97.5901 372.69 95.5101 371.61C94.5101 371.05 93.4201 370.48 92.3501 369.85C91.8301 369.56 91.2701 369.16 90.7401 368.85C90.2101 368.54 89.5901 367.99 89.0201 367.55C88.882 367.439 88.7578 367.311 88.6501 367.17L88.4201 366.86C87.0178 364.983 85.7512 363.008 84.6301 360.95C83.5478 358.943 82.5731 356.88 81.7101 354.77C80.8501 352.68 80.1001 350.56 79.4401 348.42C79.1201 347.35 78.8101 346.27 78.5201 345.18C78.2301 344.09 77.9901 343.05 77.7501 341.81C77.5036 340.582 77.7469 339.306 78.4281 338.255C79.1093 337.204 80.1743 336.461 81.3959 336.184C82.6175 335.907 83.8989 336.119 84.9665 336.774C86.0341 337.429 86.8034 338.476 87.1101 339.69L87.1601 339.84Z" fill="#CE7A63"/>
<path d="M81.0606 326.83C75.5806 330.42 75.1406 336.06 77.6506 346.97C81.4406 349.04 90.9006 346.92 90.9006 346.92C90.9006 346.92 88.5306 330 81.0606 326.83Z" fill="#2979FF"/>
</svg>
