<svg width="189" height="36" viewBox="0 0 189 36" fill="none" xmlns="http://www.w3.org/2000/svg">
<path d="M18.3044 3.79257C10.3262 3.79257 3.8511 10.2676 3.8511 18.2459C3.8511 26.2241 10.3262 32.6991 18.3044 32.6991C26.2827 32.6991 32.7578 26.2241 32.7578 18.2459C32.7578 10.2676 26.2827 3.79257 18.3044 3.79257ZM16.4544 23.1744C15.9774 23.9405 15.1392 24.403 14.2286 24.403H10.2684C9.76252 24.403 9.44453 23.8537 9.70469 23.4201L17.813 9.53053C18.0442 9.12584 18.6224 9.09693 18.897 9.47271L21.1517 12.4934C21.8021 13.3606 21.8455 14.5314 21.2818 15.4564L16.4544 23.1744ZM26.326 24.403H20.776C20.2701 24.403 19.9521 23.8537 20.2123 23.4057L22.9873 18.7806C23.2475 18.3615 23.8546 18.3615 24.1147 18.7806L26.8897 23.4057C27.1499 23.8393 26.8319 24.403 26.326 24.403Z" fill="#717171"/>
<path d="M55.7725 27.7458L53.846 22.524H46.8498L44.9233 27.7458H42.0843L48.9537 9.57092H51.7928L58.6369 27.7458H55.7725ZM51.2604 15.0462C51.2097 14.8603 51.1168 14.5815 50.9816 14.2097C50.8633 13.821 50.745 13.4324 50.6267 13.0437C50.5084 12.6381 50.4155 12.3086 50.3479 12.0551C50.2634 12.3931 50.162 12.7648 50.0437 13.1704C49.9423 13.5591 49.8409 13.9224 49.7395 14.2604C49.6381 14.5815 49.5536 14.8434 49.486 15.0462L47.6609 20.1413H53.0855L51.2604 15.0462ZM73.2442 9.64696L66.8564 27.7458H64.0173L57.6548 9.64696H60.4685L64.3468 21.0031C64.4989 21.4087 64.6426 21.8481 64.7778 22.3213C64.913 22.7775 65.0397 23.2338 65.158 23.6901C65.2763 24.1464 65.3692 24.5773 65.4368 24.9829C65.5213 24.5773 65.6143 24.1464 65.7157 23.6901C65.834 23.2338 65.9607 22.7691 66.0959 22.2959C66.248 21.8227 66.3916 21.3834 66.5268 20.9778L70.4052 9.64696H73.2442ZM85.9234 27.7458L83.9969 22.524H77.0007L75.0742 27.7458H72.2352L79.1047 9.57092H81.9437L88.7878 27.7458H85.9234ZM81.4114 15.0462C81.3607 14.8603 81.2678 14.5815 81.1326 14.2097C81.0143 13.821 80.896 13.4324 80.7777 13.0437C80.6594 12.6381 80.5664 12.3086 80.4988 12.0551C80.4143 12.3931 80.313 12.7648 80.1947 13.1704C80.0933 13.5591 79.9919 13.9224 79.8905 14.2604C79.7891 14.5815 79.7046 14.8434 79.637 15.0462L77.8119 20.1413H83.2365L81.4114 15.0462ZM91.2288 27.7458V9.64696H93.9665V25.3884H101.698V27.7458H91.2288ZM116.099 27.7458L114.173 22.524H107.176L105.25 27.7458H102.411L109.28 9.57092H112.119L118.964 27.7458H116.099ZM111.587 15.0462C111.536 14.8603 111.443 14.5815 111.308 14.2097C111.19 13.821 111.072 13.4324 110.953 13.0437C110.835 12.6381 110.742 12.3086 110.675 12.0551C110.59 12.3931 110.489 12.7648 110.37 13.1704C110.269 13.5591 110.168 13.9224 110.066 14.2604C109.965 14.5815 109.88 14.8434 109.813 15.0462L107.988 20.1413H113.412L111.587 15.0462ZM136.259 27.7458H132.938L123.787 13.1197H123.686C123.703 13.4577 123.72 13.821 123.737 14.2097C123.77 14.5984 123.796 15.0124 123.813 15.4518C123.83 15.8743 123.846 16.3136 123.863 16.7699C123.88 17.2093 123.889 17.6571 123.889 18.1134V27.7458H121.405V9.64696H124.7L133.825 24.197H133.901C133.884 23.9436 133.868 23.6309 133.851 23.2592C133.834 22.8705 133.817 22.4564 133.8 22.0171C133.8 21.5777 133.792 21.1299 133.775 20.6736C133.758 20.2173 133.741 19.7864 133.724 19.3808V9.64696H136.259V27.7458ZM148.816 11.7509C147.92 11.7509 147.117 11.9114 146.408 12.2325C145.698 12.5367 145.089 12.993 144.582 13.6013C144.092 14.2097 143.712 14.9448 143.442 15.8067C143.188 16.6685 143.062 17.6402 143.062 18.7218C143.062 20.1413 143.273 21.3749 143.695 22.4226C144.118 23.4535 144.751 24.2477 145.596 24.8054C146.441 25.3631 147.506 25.6419 148.79 25.6419C149.568 25.6419 150.311 25.5743 151.021 25.4391C151.748 25.287 152.483 25.0927 153.226 24.8561V27.2135C152.517 27.4839 151.79 27.6783 151.046 27.7965C150.303 27.9317 149.441 27.9993 148.461 27.9993C146.619 27.9993 145.081 27.6191 143.847 26.8586C142.631 26.0982 141.718 25.0167 141.11 23.614C140.501 22.2114 140.197 20.5722 140.197 18.6964C140.197 17.3276 140.383 16.0771 140.755 14.9448C141.143 13.7957 141.701 12.8071 142.428 11.979C143.154 11.151 144.05 10.5173 145.115 10.0779C146.196 9.62161 147.438 9.39348 148.841 9.39348C149.754 9.39348 150.649 9.49487 151.528 9.69766C152.407 9.88355 153.201 10.1539 153.911 10.5088L152.897 12.7902C152.305 12.5198 151.663 12.2832 150.97 12.0804C150.294 11.8607 149.576 11.7509 148.816 11.7509ZM171.244 27.7458H168.507V19.4822H159.863V27.7458H157.125V9.64696H159.863V17.1501H168.507V9.64696H171.244V27.7458ZM186.277 27.7458H176.087V9.64696H186.277V11.979H178.825V17.1501H185.821V19.4569H178.825V25.3884H186.277V27.7458Z" fill="#717171"/>
</svg>
