<svg width="158" height="36" viewBox="0 0 158 36" fill="none" xmlns="http://www.w3.org/2000/svg">
<path d="M16.8752 4.29846L9.22943 11.9442C8.94037 12.2333 8.94037 12.6814 9.22943 12.9704L11.0939 14.8349C11.383 15.124 11.831 15.124 12.1201 14.8349L16.8752 10.0798C17.1643 9.79071 17.6124 9.79071 17.9014 10.0798L22.6566 14.8349C22.9457 15.124 23.3937 15.124 23.6828 14.8349L25.5473 12.9704C25.8363 12.6814 25.8363 12.2333 25.5473 11.9442L17.9014 4.29846C17.6124 4.02385 17.1499 4.02385 16.8752 4.29846Z" fill="#717171"/>
<path d="M16.8752 32.1932L9.22943 24.5474C8.94037 24.2584 8.94037 23.8103 9.22943 23.5212L11.0939 21.6568C11.383 21.3677 11.831 21.3677 12.1201 21.6568L16.8752 26.4119C17.1643 26.701 17.6124 26.701 17.9014 26.4119L22.6566 21.6568C22.9457 21.3677 23.3937 21.3677 23.6828 21.6568L25.5473 23.5212C25.8363 23.8103 25.8363 24.2584 25.5473 24.5474L17.9014 32.1932C17.6124 32.4678 17.1499 32.4678 16.8752 32.1932Z" fill="#717171"/>
<path d="M29.0856 15.4998L31.3114 17.7256C31.6005 18.0147 31.6005 18.4627 31.3114 18.7518L29.0856 20.9776C28.7966 21.2666 28.3485 21.2666 28.0594 20.9776L25.8336 18.7518C25.5446 18.4627 25.5446 18.0147 25.8336 17.7256L28.0594 15.4998C28.3485 15.2252 28.811 15.2252 29.0856 15.4998Z" fill="#717171"/>
<path d="M6.68212 15.4998L8.90793 17.7256C9.197 18.0147 9.197 18.4627 8.90793 18.7518L6.68212 20.9776C6.39305 21.2666 5.94499 21.2666 5.65592 20.9776L3.43012 18.7518C3.14105 18.4627 3.14105 18.0147 3.43012 17.7256L5.65592 15.4998C5.94499 15.2252 6.40751 15.2252 6.68212 15.4998Z" fill="#717171"/>
<path d="M17.8876 15.1817L20.4458 17.74C20.7349 18.029 20.7349 18.4771 20.4458 18.7661L17.8876 21.3244C17.5985 21.6134 17.1505 21.6134 16.8614 21.3244L14.3032 18.7661C14.0141 18.4771 14.0141 18.029 14.3032 17.74L16.8614 15.1817C17.1505 14.8927 17.613 14.8927 17.8876 15.1817Z" fill="#717171"/>
<path d="M49.0665 9.64696C50.6719 9.64696 52.0154 9.79905 53.097 10.1032C54.1954 10.3905 55.015 10.8721 55.5558 11.5481C56.1134 12.2072 56.3923 13.1028 56.3923 14.2351C56.3923 14.911 56.2824 15.5278 56.0627 16.0855C55.8431 16.6432 55.522 17.0994 55.0995 17.4543C54.6939 17.8092 54.1954 18.0373 53.6039 18.1387V18.2655C54.2123 18.3838 54.7615 18.595 55.2516 18.8992C55.7417 19.2034 56.1303 19.6428 56.4176 20.2173C56.7049 20.7919 56.8485 21.5523 56.8485 22.4987C56.8485 23.5971 56.5782 24.5435 56.0374 25.3377C55.5135 26.1151 54.7531 26.715 53.756 27.1375C52.759 27.5431 51.576 27.7458 50.2072 27.7458H43.4391V9.64696H49.0665ZM49.4975 16.8206C50.6128 16.8206 51.3817 16.6432 51.8042 16.2883C52.2436 15.9334 52.4632 15.418 52.4632 14.742C52.4632 14.0492 52.2098 13.5506 51.7028 13.2465C51.1958 12.9423 50.3931 12.7902 49.2947 12.7902H47.2668V16.8206H49.4975ZM47.2668 19.8624V24.5773H49.7763C50.9254 24.5773 51.7281 24.3576 52.1844 23.9182C52.6407 23.4619 52.8688 22.862 52.8688 22.1185C52.8688 21.6622 52.7674 21.2651 52.5646 20.9271C52.3787 20.5891 52.0492 20.3272 51.576 20.1413C51.1029 19.9554 50.4607 19.8624 49.6496 19.8624H47.2668ZM67.2383 27.7458H59V25.5659L61.2053 24.5519V12.8409L59 11.8269V9.64696H67.2383V11.8269L65.033 12.8409V24.5519L67.2383 25.5659V27.7458ZM86.3682 27.7458H81.5012L73.6178 14.0576H73.5164C73.5333 14.4801 73.5502 14.911 73.5671 15.3504C73.584 15.7729 73.6009 16.2038 73.6178 16.6432C73.6516 17.0656 73.677 17.4966 73.6939 17.9359C73.7108 18.3584 73.7277 18.7894 73.7446 19.2287V27.7458H70.3225V9.64696H75.1641L83.0221 23.2085H83.0982C83.0813 22.786 83.0644 22.372 83.0475 21.9664C83.0306 21.5439 83.0137 21.1299 82.9968 20.7243C82.9968 20.3018 82.9883 19.8878 82.9714 19.4822C82.9545 19.0597 82.9376 18.6373 82.9207 18.2148V9.64696H86.3682V27.7458ZM102.02 27.7458L100.702 23.4366H94.1116L92.7934 27.7458H88.6616L95.0494 9.57092H99.7389L106.152 27.7458H102.02ZM98.4715 16.0095C98.387 15.7222 98.2772 15.3588 98.142 14.9195C98.0068 14.4801 97.8716 14.0323 97.7364 13.576C97.6012 13.1197 97.4914 12.7226 97.4069 12.3846C97.3224 12.7226 97.2041 13.1451 97.052 13.652C96.9168 14.1421 96.7816 14.6153 96.6464 15.0716C96.5281 15.5109 96.4352 15.8236 96.3676 16.0095L95.0748 20.2173H99.7896L98.4715 16.0095ZM124.49 27.7458H119.623L111.74 14.0576H111.638C111.655 14.4801 111.672 14.911 111.689 15.3504C111.706 15.7729 111.723 16.2038 111.74 16.6432C111.774 17.0656 111.799 17.4966 111.816 17.9359C111.833 18.3584 111.85 18.7894 111.866 19.2287V27.7458H108.444V9.64696H113.286L121.144 23.2085H121.22C121.203 22.786 121.186 22.372 121.169 21.9664C121.152 21.5439 121.136 21.1299 121.119 20.7243C121.119 20.3018 121.11 19.8878 121.093 19.4822C121.076 19.0597 121.06 18.6373 121.043 18.2148V9.64696H124.49V27.7458ZM136.745 12.5874C136.019 12.5874 135.368 12.731 134.794 13.0183C134.236 13.3056 133.763 13.7196 133.374 14.2604C132.985 14.7843 132.69 15.4264 132.487 16.1869C132.301 16.9474 132.208 17.8008 132.208 18.7471C132.208 20.0314 132.36 21.1299 132.664 22.0424C132.985 22.9381 133.484 23.6225 134.16 24.0957C134.836 24.5688 135.698 24.8054 136.745 24.8054C137.489 24.8054 138.224 24.7209 138.951 24.5519C139.694 24.3829 140.497 24.1464 141.359 23.8422V27.0614C140.565 27.3825 139.779 27.6191 139.002 27.7712C138.224 27.9233 137.354 27.9993 136.391 27.9993C134.532 27.9993 132.994 27.6191 131.777 26.8586C130.577 26.0813 129.69 24.9998 129.116 23.614C128.541 22.2114 128.254 20.5807 128.254 18.7218C128.254 17.3529 128.44 16.1024 128.811 14.9702C129.183 13.821 129.724 12.8324 130.434 12.0044C131.16 11.1763 132.048 10.5342 133.095 10.0779C134.16 9.62161 135.377 9.39348 136.745 9.39348C137.641 9.39348 138.537 9.51177 139.432 9.74836C140.345 9.96805 141.215 10.2722 142.043 10.6609L140.801 13.7788C140.125 13.4577 139.441 13.1789 138.748 12.9423C138.072 12.7057 137.405 12.5874 136.745 12.5874ZM155.623 27.7458H145.205V9.64696H155.623V12.7902H149.032V16.7699H155.167V19.9131H149.032V24.5773H155.623V27.7458Z" fill="#717171"/>
</svg>
