<svg width="200" height="201" viewBox="0 0 200 201" fill="none" xmlns="http://www.w3.org/2000/svg">
<mask id="path-1-inside-1_253_3588" fill="white">
<path d="M200 100.25C200 155.478 155.228 200.25 100 200.25C44.7715 200.25 0 155.478 0 100.25C0 45.0215 44.7715 0.25 100 0.25C155.228 0.25 200 45.0215 200 100.25ZM7.68832 100.25C7.68832 151.232 49.0177 192.562 100 192.562C150.982 192.562 192.312 151.232 192.312 100.25C192.312 49.2677 150.982 7.93832 100 7.93832C49.0177 7.93832 7.68832 49.2677 7.68832 100.25Z"/>
</mask>
<path d="M200 100.25C200 155.478 155.228 200.25 100 200.25C44.7715 200.25 0 155.478 0 100.25C0 45.0215 44.7715 0.25 100 0.25C155.228 0.25 200 45.0215 200 100.25ZM7.68832 100.25C7.68832 151.232 49.0177 192.562 100 192.562C150.982 192.562 192.312 151.232 192.312 100.25C192.312 49.2677 150.982 7.93832 100 7.93832C49.0177 7.93832 7.68832 49.2677 7.68832 100.25Z" stroke="#2979FF" stroke-width="20" mask="url(#path-1-inside-1_253_3588)"/>
</svg>
