<svg width="24" height="25" viewBox="0 0 24 25" fill="none" xmlns="http://www.w3.org/2000/svg">
<path d="M11.05 15.2L9.2 17.05C8.81 17.44 8.19 17.44 7.79 17.06C7.68 16.95 7.57 16.85 7.46 16.74C6.43 15.7 5.5 14.61 4.67 13.47C3.85 12.33 3.19 11.19 2.71 10.06C2.24 8.92 2 7.83 2 6.79C2 6.11 2.12 5.46 2.36 4.86C2.6 4.25 2.98 3.69 3.51 3.19C4.15 2.56 4.85 2.25 5.59 2.25C5.87 2.25 6.15 2.31 6.4 2.43C6.66 2.55 6.89 2.73 7.07 2.99L9.39 6.26C9.57 6.51 9.7 6.74 9.79 6.96C9.88 7.17 9.93 7.38 9.93 7.57C9.93 7.81 9.86 8.05 9.72 8.28C9.59 8.51 9.4 8.75 9.16 8.99L8.4 9.78C8.29 9.89 8.24 10.02 8.24 10.18C8.24 10.26 8.25 10.33 8.27 10.41C8.3 10.49 8.33 10.55 8.35 10.61C8.53 10.94 8.84 11.37 9.28 11.89C9.73 12.41 10.21 12.94 10.73 13.47C10.83 13.57 10.94 13.67 11.04 13.77C11.44 14.16 11.45 14.8 11.05 15.2Z" fill="white"/>
<path d="M21.97 18.58C21.97 18.86 21.92 19.15 21.82 19.43C21.79 19.51 21.76 19.59 21.72 19.67C21.55 20.03 21.33 20.37 21.04 20.69C20.55 21.23 20.01 21.62 19.4 21.87C19.39 21.87 19.38 21.88 19.37 21.88C18.78 22.12 18.14 22.25 17.45 22.25C16.43 22.25 15.34 22.01 14.19 21.52C13.04 21.03 11.89 20.37 10.75 19.54C10.36 19.25 9.97 18.96 9.6 18.65L12.87 15.38C13.15 15.59 13.4 15.75 13.61 15.86C13.66 15.88 13.72 15.91 13.79 15.94C13.87 15.97 13.95 15.98 14.04 15.98C14.21 15.98 14.34 15.92 14.45 15.81L15.21 15.06C15.46 14.81 15.7 14.62 15.93 14.5C16.16 14.36 16.39 14.29 16.64 14.29C16.83 14.29 17.03 14.33 17.25 14.42C17.47 14.51 17.7 14.64 17.95 14.81L21.26 17.16C21.52 17.34 21.7 17.55 21.81 17.8C21.91 18.05 21.97 18.3 21.97 18.58Z" fill="white"/>
</svg>
