<svg width="124" height="36" viewBox="0 0 124 36" fill="none" xmlns="http://www.w3.org/2000/svg">
<path d="M0.0284405 9.19806V27.2936C0.0284405 30.2709 -2.39971 32.6991 -5.3771 32.6991H-6.1287C-9.10609 32.6991 -11.5342 30.2709 -11.5342 27.2936V18.0724C-11.0284 18.0146 -10.5369 17.9423 -10.0744 17.8411C-7.12595 17.3063 -4.88574 16.2946 -3.26697 15.2684C-1.18568 13.9676 0.0284405 11.6551 0.0284405 9.19806Z" fill="#717171"/>
<path d="M0.028492 9.19808C0.028492 11.6551 -1.18563 13.9677 -3.26691 15.2685C-4.88569 16.2946 -7.1259 17.3064 -10.0744 17.8411C-10.5369 17.9423 -11.0283 18.0146 -11.5342 18.0724V19.1564C-13.2541 19.3732 -15.0897 19.2576 -17.2143 19.4744L-17.3155 19.4888V27.2936C-17.3155 30.271 -19.7437 32.6991 -22.7211 32.6991H-23.4727C-26.4501 32.6991 -28.8782 30.271 -28.8782 27.2936C-28.8782 27.1635 -28.8782 27.019 -28.8493 26.8889C-28.7336 24.5764 -27.5485 22.4517 -25.5828 21.2232C-23.964 20.197 -21.7238 19.1853 -18.7898 18.6505C-18.3273 18.5493 -17.8214 18.4771 -17.3155 18.4193V17.3064C-15.0608 17.104 -13.3409 17.2196 -11.6643 17.0028L-11.5342 16.9884V9.19808C-11.5342 6.2207 -9.10604 3.79254 -6.12865 3.79254H-5.37705C-2.73208 3.79254 -0.506279 5.71483 -0.0582256 8.24416C-0.000411987 8.54767 0.028492 8.86565 0.028492 9.19808Z" fill="#717171"/>
<path d="M25.88 27.7458H23.1424V19.4822H14.4985V27.7458H11.7609V9.64696H14.4985V17.1501H23.1424V9.64696H25.88V27.7458ZM35.7165 13.8295C37.4402 13.8295 38.7245 14.2097 39.5694 14.9702C40.4144 15.7137 40.8369 16.8882 40.8369 18.4936V27.7458H38.9357L38.4034 25.8447H38.302C37.9133 26.3348 37.5078 26.7404 37.0853 27.0614C36.6797 27.3825 36.2065 27.6191 35.6658 27.7712C35.1419 27.9233 34.4997 27.9993 33.7393 27.9993C32.9281 27.9993 32.193 27.8557 31.5339 27.5684C30.8918 27.2642 30.3848 26.808 30.013 26.1996C29.6413 25.5743 29.4554 24.797 29.4554 23.8675C29.4554 22.4818 29.9792 21.4256 31.027 20.6989C32.0916 19.9723 33.7055 19.5752 35.8686 19.5076L38.2006 19.4315V18.6711C38.2006 17.6571 37.9725 16.9474 37.5162 16.5418C37.0599 16.1362 36.4178 15.9334 35.5897 15.9334C34.88 15.9334 34.204 16.0348 33.5618 16.2376C32.9197 16.4404 32.3113 16.6854 31.7367 16.9727L30.8749 15.0209C31.517 14.6829 32.2522 14.404 33.0802 14.1844C33.9252 13.9478 34.8039 13.8295 35.7165 13.8295ZM36.3502 21.2313C34.7955 21.2989 33.7139 21.5608 33.1056 22.0171C32.5141 22.4564 32.2184 23.0817 32.2184 23.8929C32.2184 24.6026 32.4296 25.118 32.8521 25.4391C33.2914 25.7602 33.8407 25.9208 34.4997 25.9208C35.5644 25.9208 36.4431 25.625 37.136 25.0336C37.8288 24.4421 38.1753 23.5549 38.1753 22.372V21.1806L36.3502 21.2313ZM51.717 13.8295C51.9535 13.8295 52.2155 13.8464 52.5028 13.8802C52.7901 13.8971 53.0266 13.9224 53.2125 13.9562L52.9337 16.4657C52.7478 16.415 52.5281 16.3728 52.2746 16.339C52.0211 16.3052 51.7846 16.2883 51.5649 16.2883C51.0579 16.2883 50.5678 16.3897 50.0947 16.5925C49.6384 16.7784 49.2244 17.0572 48.8526 17.429C48.4808 17.7839 48.1851 18.2232 47.9654 18.7471C47.7626 19.271 47.6612 19.8709 47.6612 20.5469V27.7458H44.9742V14.083H47.1035L47.4584 16.5164H47.5598C47.8471 16.0264 48.1935 15.5785 48.5991 15.173C49.0047 14.7674 49.4694 14.4463 49.9933 14.2097C50.5171 13.9562 51.0917 13.8295 51.717 13.8295ZM71.053 13.8295C72.5908 13.8295 73.7484 14.2266 74.5257 15.0209C75.3031 15.8151 75.6918 17.091 75.6918 18.8485V27.7458H73.0048V19.2034C73.0048 18.1556 72.7936 17.3698 72.3711 16.846C71.9655 16.3052 71.3234 16.0348 70.4446 16.0348C69.2279 16.0348 68.3576 16.415 67.8337 17.1755C67.3098 17.919 67.0479 19.0006 67.0479 20.4201V27.7458H64.3863V19.2034C64.3863 18.5105 64.2849 17.9275 64.0821 17.4543C63.8962 16.9812 63.6174 16.6263 63.2456 16.3897C62.8738 16.1531 62.3922 16.0348 61.8007 16.0348C60.9558 16.0348 60.2883 16.2207 59.7982 16.5925C59.3081 16.9643 58.9533 17.5135 58.7336 18.2401C58.5308 18.9499 58.4294 19.8202 58.4294 20.851V27.7458H55.7424V14.083H57.8717L58.2519 15.9081H58.404C58.6913 15.4349 59.0378 15.0462 59.4433 14.742C59.8658 14.4378 60.3305 14.2097 60.8375 14.0576C61.3445 13.9055 61.8683 13.8295 62.4091 13.8295C63.44 13.8295 64.3103 14.0154 65.02 14.3871C65.7298 14.742 66.2452 15.2912 66.5663 16.0348H66.7691C67.2084 15.2743 67.8168 14.7167 68.5942 14.3618C69.3715 14.0069 70.1911 13.8295 71.053 13.8295ZM91.8444 20.9017C91.8444 22.034 91.6923 23.0395 91.3881 23.9182C91.0839 24.797 90.653 25.5405 90.0953 26.1489C89.5376 26.7573 88.8617 27.222 88.0674 27.5431C87.2732 27.8472 86.3775 27.9993 85.3805 27.9993C84.4679 27.9993 83.623 27.8472 82.8456 27.5431C82.0683 27.222 81.3923 26.7573 80.8177 26.1489C80.2601 25.5405 79.8207 24.797 79.4996 23.9182C79.1785 23.0395 79.018 22.0255 79.018 20.8764C79.018 19.3724 79.2715 18.0965 79.7784 17.0487C80.3023 16.001 81.0459 15.2068 82.0091 14.666C82.9893 14.1083 84.1384 13.8295 85.4565 13.8295C86.707 13.8295 87.8055 14.1083 88.7518 14.666C89.7151 15.2068 90.4671 16.001 91.0079 17.0487C91.5655 18.0965 91.8444 19.3808 91.8444 20.9017ZM81.781 20.9017C81.781 21.9157 81.9077 22.7944 82.1612 23.538C82.4147 24.2646 82.8118 24.8223 83.3526 25.211C83.8934 25.5997 84.5862 25.794 85.4312 25.794C86.2761 25.794 86.969 25.5997 87.5098 25.211C88.0505 24.8223 88.4477 24.2646 88.7011 23.538C88.9546 22.7944 89.0814 21.9157 89.0814 20.9017C89.0814 19.854 88.9462 18.9752 88.6758 18.2655C88.4223 17.5557 88.0252 17.015 87.4844 16.6432C86.9605 16.2545 86.2677 16.0602 85.4058 16.0602C84.1384 16.0602 83.2174 16.4826 82.6428 17.3276C82.0683 18.1725 81.781 19.3639 81.781 20.9017ZM102.171 13.8295C103.759 13.8295 104.976 14.2266 105.821 15.0209C106.666 15.8151 107.088 17.091 107.088 18.8485V27.7458H104.427V19.2287C104.427 18.1641 104.199 17.3698 103.742 16.846C103.303 16.3052 102.593 16.0348 101.613 16.0348C100.227 16.0348 99.2641 16.4488 98.7233 17.2769C98.1995 18.1049 97.9375 19.2963 97.9375 20.851V27.7458H95.2506V14.083H97.3798L97.7601 15.9081H97.9122C98.2164 15.4349 98.5881 15.0462 99.0275 14.742C99.4669 14.4378 99.957 14.2097 100.498 14.0576C101.038 13.9055 101.596 13.8295 102.171 13.8295ZM109.139 14.083H112.028L114.867 21.8396C115.019 22.2283 115.155 22.6085 115.273 22.9803C115.391 23.3521 115.493 23.7239 115.577 24.0957C115.679 24.4505 115.755 24.8054 115.805 25.1603H115.907C115.991 24.7209 116.126 24.2055 116.312 23.614C116.498 23.0057 116.692 22.4057 116.895 21.8143L119.582 14.083H122.472L116.616 29.5963C116.295 30.475 115.898 31.2271 115.425 31.8523C114.952 32.4945 114.386 32.9846 113.727 33.3225C113.085 33.6605 112.324 33.8295 111.445 33.8295C111.023 33.8295 110.66 33.8042 110.355 33.7535C110.051 33.7197 109.789 33.6774 109.57 33.6267V31.4974C109.755 31.5312 109.975 31.565 110.229 31.5988C110.499 31.6326 110.778 31.6495 111.065 31.6495C111.589 31.6495 112.037 31.5481 112.409 31.3453C112.797 31.1426 113.118 30.8553 113.372 30.4835C113.642 30.1117 113.87 29.6892 114.056 29.2161L114.614 27.7458L109.139 14.083Z" fill="#717171"/>
</svg>
