<svg width="23" height="20" viewBox="0 0 23 20" fill="none" xmlns="http://www.w3.org/2000/svg">
<rect x="0.681824" y="0.70459" width="21.6364" height="19.0909" rx="3.43636" fill="#4880FF"/>
<path d="M7.03848 6.93708C6.54242 6.93708 6.14472 6.80452 5.84538 6.53938C5.54603 6.27425 5.39636 5.94069 5.39636 5.53871C5.39636 5.12818 5.54603 4.79035 5.84538 4.52521C6.14472 4.25153 6.54242 4.11468 7.03848 4.11468C7.52599 4.11468 7.91941 4.25153 8.21876 4.52521C8.5181 4.79035 8.66778 5.12818 8.66778 5.53871C8.66778 5.94069 8.5181 6.27425 8.21876 6.53938C7.91941 6.80452 7.52599 6.93708 7.03848 6.93708ZM8.44968 7.51439V14.75H5.60162V7.51439H8.44968ZM14.8035 7.46308C15.6331 7.46308 16.2788 7.74104 16.7407 8.29697C17.2111 8.85289 17.4463 9.60553 17.4463 10.5549V14.75H14.6111V10.9141C14.6111 10.572 14.517 10.3026 14.3288 10.1059C14.1492 9.9006 13.9055 9.79797 13.5976 9.79797C13.2811 9.79797 13.0331 9.9006 12.8535 10.1059C12.6739 10.3026 12.5841 10.572 12.5841 10.9141V14.75H9.736V7.51439H12.5841V8.61769C12.8064 8.27558 13.1015 7.99762 13.4693 7.7838C13.8456 7.56998 14.2903 7.46308 14.8035 7.46308Z" fill="white"/>
</svg>
