<svg width="70" height="19" viewBox="0 0 70 19" fill="none" xmlns="http://www.w3.org/2000/svg">
<path d="M16.3726 18.7458H11.432L3.42936 4.85055H3.32643C3.34359 5.27942 3.36074 5.71686 3.3779 6.16288C3.39505 6.59175 3.4122 7.02919 3.42936 7.47522C3.46367 7.90408 3.4894 8.34153 3.50656 8.78755C3.52371 9.21642 3.54086 9.65386 3.55802 10.0999V18.7458H0.0841941V0.373173H4.99901L12.9759 14.1398H13.0531C13.036 13.7109 13.0188 13.2907 13.0017 12.8789C12.9845 12.4501 12.9674 12.0298 12.9502 11.6181C12.9502 11.1892 12.9416 10.7689 12.9245 10.3572C12.9073 9.92834 12.8902 9.49947 12.873 9.0706V0.373173H16.3726V18.7458ZM31.5925 18.7458H21.0166V0.373173H31.5925V3.56395H24.9021V7.60388H31.1293V10.7946H24.9021V15.5293H31.5925V18.7458ZM40.7678 0.373173C42.4318 0.373173 43.8041 0.579029 44.8849 0.990742C45.9656 1.3853 46.7719 1.99429 47.3037 2.81772C47.8355 3.62399 48.1014 4.64469 48.1014 5.87983C48.1014 6.72041 47.9384 7.45806 47.6125 8.09278C47.3037 8.71035 46.8834 9.24215 46.3516 9.68817C45.837 10.117 45.2794 10.4687 44.679 10.7432L50.0828 18.7458H45.7598L41.3853 11.6953H39.301V18.7458H35.4155V0.373173H40.7678ZM40.4847 3.56395H39.301V8.53023H40.5619C41.4196 8.53023 42.1144 8.43588 42.6462 8.24718C43.178 8.05848 43.564 7.77542 43.8041 7.39802C44.0443 7.00346 44.1644 6.53171 44.1644 5.98276C44.1644 5.3995 44.0271 4.93632 43.7527 4.59323C43.4953 4.23298 43.0922 3.97566 42.5433 3.82127C42.0115 3.64972 41.3253 3.56395 40.4847 3.56395ZM66.8126 0.373173L60.5597 18.7458H56.3139L50.0868 0.373173H54.0238L57.4719 11.3093C57.5405 11.498 57.6348 11.8497 57.7549 12.3643C57.8922 12.8618 58.0294 13.3936 58.1666 13.9597C58.3039 14.5086 58.3982 14.9718 58.4497 15.3492C58.5011 14.9718 58.5869 14.5086 58.707 13.9597C58.8442 13.3936 58.9815 12.8618 59.1187 12.3643C59.256 11.8497 59.3503 11.498 59.4018 11.3093L62.8756 0.373173H66.8126ZM85.5616 9.53378C85.5616 10.9576 85.3815 12.2528 85.0212 13.4193C84.6781 14.5687 84.1463 15.5637 83.4258 16.4042C82.7225 17.2448 81.8133 17.8881 80.6982 18.3341C79.6003 18.7802 78.3052 19.0032 76.8127 19.0032C75.3203 19.0032 74.0165 18.7802 72.9014 18.3341C71.8035 17.871 70.8943 17.2277 70.1738 16.4042C69.4705 15.5637 68.9387 14.5601 68.5785 13.3936C68.2354 12.2271 68.0638 10.9319 68.0638 9.50805C68.0638 7.60388 68.3726 5.94845 68.9902 4.54176C69.6249 3.13508 70.5856 2.04576 71.8722 1.27379C73.1759 0.484679 74.8313 0.0901211 76.8384 0.0901211C78.8284 0.0901211 80.4667 0.484679 81.7533 1.27379C83.0399 2.04576 83.9919 3.14366 84.6095 4.5675C85.2442 5.97418 85.5616 7.62961 85.5616 9.53378ZM72.1552 9.53378C72.1552 10.8204 72.3182 11.9269 72.6441 12.8532C72.9701 13.7796 73.4761 14.4915 74.1623 14.989C74.8485 15.4865 75.732 15.7352 76.8127 15.7352C77.9278 15.7352 78.8198 15.4865 79.4888 14.989C80.175 14.4915 80.6725 13.7796 80.9813 12.8532C81.3072 11.9269 81.4702 10.8204 81.4702 9.53378C81.4702 7.5953 81.11 6.07711 80.3895 4.97921C79.669 3.88131 78.4853 3.33236 76.8384 3.33236C75.7405 3.33236 74.8485 3.5811 74.1623 4.07859C73.4761 4.57607 72.9701 5.28799 72.6441 6.21435C72.3182 7.1407 72.1552 8.24718 72.1552 9.53378ZM100.201 13.6509C100.201 14.7317 99.9346 15.6752 99.4028 16.4814C98.871 17.2877 98.0991 17.9138 97.0869 18.3599C96.092 18.7887 94.874 19.0032 93.433 19.0032C92.7983 19.0032 92.1721 18.9603 91.5546 18.8745C90.9541 18.7887 90.3709 18.6687 89.8048 18.5143C89.2558 18.3427 88.7326 18.1369 88.2351 17.8967V14.2685C89.11 14.6459 90.0106 14.9975 90.937 15.3235C91.8805 15.6323 92.8154 15.7867 93.7418 15.7867C94.3765 15.7867 94.8826 15.7009 95.26 15.5293C95.6545 15.3578 95.9376 15.1262 96.1091 14.8346C96.2978 14.5429 96.3922 14.2084 96.3922 13.831C96.3922 13.3679 96.2292 12.9733 95.9033 12.6474C95.5945 12.3214 95.1742 12.0212 94.6424 11.7467C94.1106 11.4551 93.5016 11.1463 92.8154 10.8204C92.3866 10.6145 91.9234 10.3744 91.4259 10.0999C90.9284 9.80825 90.4481 9.45658 89.9849 9.04487C89.5389 8.616 89.17 8.10136 88.8784 7.50095C88.5868 6.90053 88.441 6.18004 88.441 5.33946C88.441 4.24156 88.6897 3.30663 89.1872 2.53466C89.7018 1.74555 90.4223 1.14513 91.3487 0.733421C92.2922 0.321709 93.3987 0.115853 94.6681 0.115853C95.6288 0.115853 96.538 0.227358 97.3957 0.45037C98.2706 0.673381 99.1798 0.990743 100.123 1.40246L98.8625 4.43883C98.0219 4.09574 97.2671 3.82984 96.598 3.64114C95.929 3.45244 95.2428 3.35809 94.5395 3.35809C94.0591 3.35809 93.6474 3.43529 93.3043 3.58968C92.9612 3.74407 92.6953 3.9585 92.5066 4.23298C92.3351 4.50745 92.2493 4.83339 92.2493 5.2108C92.2493 5.63966 92.378 6.00849 92.6353 6.31727C92.8926 6.6089 93.2786 6.89196 93.7932 7.16643C94.3079 7.44091 94.9512 7.76685 95.7231 8.14425C96.6667 8.59027 97.4643 9.05345 98.1162 9.53378C98.7853 10.0141 99.2999 10.5802 99.6601 11.2321C100.02 11.884 100.201 12.6902 100.201 13.6509Z" fill="#717171"/>
</svg>
