<svg width="138" height="36" viewBox="0 0 138 36" fill="none" xmlns="http://www.w3.org/2000/svg">
<path d="M32.0997 9.97841V26.4985C32.0997 26.7587 31.9696 26.9899 31.7528 27.12L27.5758 29.6204C27.3445 29.7505 27.0699 29.7505 26.8386 29.6204L12.949 21.541C12.7322 21.411 12.5876 21.1797 12.5876 20.9196V18.9973C12.5876 18.4336 13.1947 18.0867 13.6861 18.3758L25.957 25.7325C26.434 26.0215 27.0554 25.6747 27.0554 25.111V13.0714C27.0554 12.8112 26.9254 12.58 26.7086 12.4499L20.8116 8.90886C20.3491 8.63424 20.3491 7.95494 20.8116 7.66587L24.5261 5.42563C24.7574 5.2811 25.0464 5.2811 25.2777 5.42563L31.7817 9.32801C31.9696 9.487 32.0997 9.7327 32.0997 9.97841Z" fill="#717171"/>
<path d="M16.6203 27.5392L10.7956 31.0369C10.5643 31.1814 10.2753 31.1814 10.0585 31.0369L3.55447 27.1345C3.33767 27.0044 3.20758 26.7732 3.20758 26.513V9.99289C3.20758 9.73273 3.33767 9.50149 3.55447 9.37141L10.0585 5.46903C10.2897 5.32449 10.5788 5.32449 10.7956 5.46903L24.5263 13.7074C24.7431 13.8375 24.8732 14.0687 24.8732 14.3289V21.3098C24.8732 21.8735 24.2661 22.2204 23.7747 21.9313L11.5038 14.5746C11.0269 14.2855 10.4054 14.6324 10.4054 15.1961V22.177C10.4054 22.4372 10.5354 22.6684 10.7522 22.7985L16.5914 26.3107C17.0828 26.5853 17.0828 27.2501 16.6203 27.5392Z" fill="#717171"/>
<path d="M48.7774 9.64696C50.9743 9.64696 52.5881 10.137 53.619 11.1172C54.6498 12.0973 55.1652 13.4492 55.1652 15.173C55.1652 15.9503 55.0554 16.6939 54.8357 17.4036C54.616 18.0965 54.2442 18.7218 53.7204 19.2794C53.2134 19.8371 52.5374 20.2765 51.6925 20.5976C50.8475 20.9186 49.8082 21.0792 48.5746 21.0792H46.9523V27.7458H43.5556V9.64696H48.7774ZM48.6506 12.3339H46.9523V18.3922H48.2197C48.9633 18.3922 49.597 18.2908 50.1209 18.088C50.6447 17.8684 51.0419 17.5304 51.3122 17.0741C51.5995 16.6178 51.7432 16.0264 51.7432 15.2997C51.7432 14.3027 51.4897 13.5591 50.9827 13.069C50.4757 12.5789 49.6984 12.3339 48.6506 12.3339ZM69.8918 20.851C69.8918 22.0002 69.7481 23.0141 69.4608 23.8929C69.1736 24.7716 68.7511 25.5236 68.1934 26.1489C67.6526 26.7573 66.9936 27.222 66.2162 27.5431C65.4389 27.8472 64.5686 27.9993 63.6053 27.9993C62.7097 27.9993 61.8732 27.8472 61.0958 27.5431C60.3354 27.222 59.6763 26.7573 59.1186 26.1489C58.5778 25.5236 58.1554 24.7716 57.8512 23.8929C57.547 23.0141 57.3949 22.0002 57.3949 20.851C57.3949 19.3301 57.64 18.0458 58.13 16.9981C58.637 15.9334 59.3637 15.1307 60.31 14.5899C61.2563 14.0323 62.3801 13.7534 63.6814 13.7534C64.8981 13.7534 65.9712 14.0323 66.9006 14.5899C67.8301 15.1307 68.5567 15.9334 69.0806 16.9981C69.6214 18.0458 69.8918 19.3301 69.8918 20.851ZM60.817 20.851C60.817 21.8143 60.9184 22.6423 61.1212 23.3352C61.3239 24.0112 61.6281 24.5266 62.0337 24.8815C62.4562 25.2363 62.997 25.4138 63.656 25.4138C64.3151 25.4138 64.8474 25.2363 65.253 24.8815C65.6755 24.5266 65.9796 24.0112 66.1655 23.3352C66.3683 22.6423 66.4697 21.8143 66.4697 20.851C66.4697 19.8709 66.3683 19.0513 66.1655 18.3922C65.9627 17.7163 65.6501 17.2093 65.2276 16.8713C64.822 16.5164 64.2897 16.339 63.6307 16.339C62.6336 16.339 61.9154 16.7277 61.476 17.505C61.0367 18.2824 60.817 19.3977 60.817 20.851ZM76.2044 27.7458H72.833V8.48093H76.2044V27.7458ZM78.0382 14.0069H81.6377L84.0965 21.7636C84.2148 22.0847 84.3077 22.4057 84.3753 22.7268C84.4598 23.0479 84.5274 23.369 84.5781 23.6901C84.6457 24.0112 84.6964 24.3322 84.7302 24.6533H84.8062C84.8738 24.2308 84.9583 23.7661 85.0597 23.2592C85.178 22.7522 85.3132 22.2537 85.4653 21.7636L87.8734 14.0069H91.4222L85.9723 29.5456C85.6512 30.4581 85.2456 31.2355 84.7555 31.8777C84.2824 32.5198 83.6993 33.0015 83.0065 33.3225C82.3305 33.6605 81.5194 33.8295 80.573 33.8295C80.1843 33.8295 79.8379 33.8042 79.5337 33.7535C79.2464 33.7197 78.993 33.6774 78.7733 33.6267V31.0919C78.9423 31.1257 79.1535 31.1595 79.407 31.1933C79.6605 31.2271 79.9224 31.244 80.1928 31.244C80.6829 31.244 81.0969 31.1341 81.4349 30.9144C81.7898 30.7116 82.0855 30.4243 82.3221 30.0526C82.5587 29.6977 82.7361 29.2837 82.8544 28.8105L83.2093 27.6952L78.0382 14.0069ZM97.59 13.7534C98.435 13.7534 99.1701 13.9224 99.7954 14.2604C100.421 14.5984 100.944 15.1054 101.367 15.7813H101.468L101.773 14.0069H104.612V27.8472C104.612 29.1485 104.375 30.2385 103.902 31.1172C103.429 32.0129 102.719 32.6888 101.773 33.1451C100.843 33.6014 99.6602 33.8295 98.2238 33.8295C97.2605 33.8295 96.3818 33.7619 95.5875 33.6267C94.8101 33.5084 94.0666 33.2972 93.3568 32.993V30.3568C93.8469 30.5764 94.3454 30.7623 94.8524 30.9144C95.3763 31.0834 95.917 31.2102 96.4747 31.2947C97.0324 31.3791 97.6238 31.4214 98.2491 31.4214C99.2292 31.4214 99.9728 31.1257 100.48 30.5342C101.004 29.9427 101.266 29.0978 101.266 27.9993V27.6445C101.266 27.391 101.274 27.0952 101.291 26.7573C101.325 26.4193 101.35 26.1489 101.367 25.9461H101.266C100.86 26.6559 100.353 27.1797 99.7447 27.5177C99.1363 27.8388 98.4012 27.9993 97.5393 27.9993C96.0015 27.9993 94.7848 27.3741 93.8891 26.1235C93.0104 24.873 92.571 23.1324 92.571 20.9017C92.571 19.3977 92.7738 18.1134 93.1794 17.0487C93.585 15.9841 94.1595 15.173 94.9031 14.6153C95.6635 14.0407 96.5592 13.7534 97.59 13.7534ZM98.604 16.3643C98.0294 16.3643 97.5478 16.5418 97.1591 16.8967C96.7873 17.2346 96.5 17.7416 96.2973 18.4176C96.0945 19.0935 95.9931 19.9385 95.9931 20.9524C95.9931 22.4395 96.2128 23.5633 96.6521 24.3238C97.0915 25.0842 97.7506 25.4645 98.6293 25.4645C99.1363 25.4645 99.5672 25.3969 99.9221 25.2617C100.277 25.1096 100.564 24.873 100.784 24.5519C101.004 24.2139 101.173 23.7915 101.291 23.2845C101.409 22.7606 101.468 22.1354 101.468 21.4087V20.9271C101.468 19.8286 101.367 18.9499 101.164 18.2908C100.978 17.6149 100.674 17.1248 100.252 16.8206C99.8292 16.5164 99.2799 16.3643 98.604 16.3643ZM120.069 20.851C120.069 22.0002 119.925 23.0141 119.638 23.8929C119.351 24.7716 118.928 25.5236 118.371 26.1489C117.83 26.7573 117.171 27.222 116.394 27.5431C115.616 27.8472 114.746 27.9993 113.783 27.9993C112.887 27.9993 112.05 27.8472 111.273 27.5431C110.513 27.222 109.854 26.7573 109.296 26.1489C108.755 25.5236 108.333 24.7716 108.029 23.8929C107.724 23.0141 107.572 22.0002 107.572 20.851C107.572 19.3301 107.817 18.0458 108.307 16.9981C108.814 15.9334 109.541 15.1307 110.487 14.5899C111.434 14.0323 112.557 13.7534 113.859 13.7534C115.075 13.7534 116.148 14.0323 117.078 14.5899C118.007 15.1307 118.734 15.9334 119.258 16.9981C119.799 18.0458 120.069 19.3301 120.069 20.851ZM110.994 20.851C110.994 21.8143 111.096 22.6423 111.298 23.3352C111.501 24.0112 111.805 24.5266 112.211 24.8815C112.633 25.2363 113.174 25.4138 113.833 25.4138C114.492 25.4138 115.025 25.2363 115.43 24.8815C115.853 24.5266 116.157 24.0112 116.343 23.3352C116.546 22.6423 116.647 21.8143 116.647 20.851C116.647 19.8709 116.546 19.0513 116.343 18.3922C116.14 17.7163 115.827 17.2093 115.405 16.8713C114.999 16.5164 114.467 16.339 113.808 16.339C112.811 16.339 112.093 16.7277 111.653 17.505C111.214 18.2824 110.994 19.3977 110.994 20.851ZM130.235 13.7534C131.671 13.7534 132.803 14.1506 133.631 14.9448C134.459 15.7391 134.873 17.0234 134.873 18.7978V27.7458H131.502V19.4315C131.502 18.4007 131.325 17.6318 130.97 17.1248C130.615 16.6009 130.057 16.339 129.297 16.339C128.165 16.339 127.396 16.7446 126.99 17.5557C126.584 18.35 126.382 19.5076 126.382 21.0285V27.7458H123.01V14.0069H125.596L126.077 15.8067H126.204C126.508 15.3335 126.863 14.9448 127.269 14.6406C127.674 14.3365 128.131 14.1168 128.638 13.9816C129.145 13.8295 129.677 13.7534 130.235 13.7534Z" fill="#717171"/>
</svg>
