<svg width="117" height="31" viewBox="0 0 117 31" fill="none" xmlns="http://www.w3.org/2000/svg">
<path d="M8.63922 23.444C7.18622 23.444 5.88418 23.2081 4.7331 22.7364C3.58202 22.2646 2.65738 21.5664 1.95918 20.6418C1.27986 19.7171 0.921324 18.6038 0.883584 17.3017H6.03514C6.11062 18.0377 6.36537 18.6038 6.79938 19.0001C7.23339 19.3775 7.7995 19.5662 8.4977 19.5662C9.21476 19.5662 9.78087 19.4058 10.196 19.085C10.6112 18.7453 10.8187 18.283 10.8187 17.698C10.8187 17.2074 10.6489 16.8017 10.3092 16.4809C9.98844 16.1601 9.58273 15.8959 9.09211 15.6883C8.62035 15.4808 7.94103 15.2449 7.05413 14.9807C5.77096 14.5844 4.72366 14.1882 3.91225 13.7919C3.10083 13.3956 2.40263 12.8106 1.81766 12.037C1.23268 11.2633 0.940194 10.2537 0.940194 9.00831C0.940194 7.15903 1.61008 5.71547 2.94987 4.67761C4.28965 3.62088 6.03514 3.09251 8.18634 3.09251C10.3753 3.09251 12.1396 3.62088 13.4794 4.67761C14.8192 5.71547 15.5363 7.16847 15.6306 9.03661H10.3941C10.3564 8.39503 10.1205 7.89497 9.68652 7.53644C9.2525 7.15903 8.69583 6.97033 8.01651 6.97033C7.43153 6.97033 6.95978 7.13073 6.60124 7.45152C6.24271 7.75344 6.06344 8.19689 6.06344 8.78187C6.06344 9.42345 6.36537 9.92351 6.96921 10.282C7.57306 10.6406 8.51657 11.0274 9.79974 11.4426C11.0829 11.8766 12.1208 12.2917 12.9133 12.688C13.7247 13.0843 14.4229 13.6598 15.0079 14.4146C15.5929 15.1694 15.8854 16.1412 15.8854 17.3301C15.8854 18.4623 15.5929 19.4907 15.0079 20.4153C14.4418 21.34 13.6115 22.0759 12.517 22.6231C11.4226 23.1704 10.13 23.444 8.63922 23.444ZM21.2983 5.80982C20.4491 5.80982 19.7509 5.5645 19.2037 5.07388C18.6753 4.56439 18.4112 3.94167 18.4112 3.20574C18.4112 2.45093 18.6753 1.82821 19.2037 1.33759C19.7509 0.828093 20.4491 0.573346 21.2983 0.573346C22.1286 0.573346 22.8079 0.828093 23.3363 1.33759C23.8835 1.82821 24.1571 2.45093 24.1571 3.20574C24.1571 3.94167 23.8835 4.56439 23.3363 5.07388C22.8079 5.5645 22.1286 5.80982 21.2983 5.80982ZM23.7042 7.45152V23.2458H18.864V7.45152H23.7042ZM47.3652 7.28169C49.3277 7.28169 50.8845 7.8761 52.0356 9.06492C53.2055 10.2537 53.7905 11.9049 53.7905 14.0183V23.2458H48.9786V14.6694C48.9786 13.6504 48.705 12.8673 48.1578 12.32C47.6294 11.7539 46.8935 11.4709 45.95 11.4709C45.0064 11.4709 44.2611 11.7539 43.7138 12.32C43.1855 12.8673 42.9213 13.6504 42.9213 14.6694V23.2458H38.1094V14.6694C38.1094 13.6504 37.8358 12.8673 37.2886 12.32C36.7602 11.7539 36.0243 11.4709 35.0807 11.4709C34.1372 11.4709 33.3919 11.7539 32.8446 12.32C32.3163 12.8673 32.0521 13.6504 32.0521 14.6694V23.2458H27.2119V7.45152H32.0521V9.43289C32.5427 8.77243 33.1843 8.2535 33.9768 7.8761C34.7694 7.47983 35.6657 7.28169 36.6658 7.28169C37.8547 7.28169 38.9114 7.53644 39.836 8.04593C40.7795 8.55543 41.5155 9.28193 42.0438 10.2254C42.5911 9.35741 43.3364 8.64978 44.2799 8.10254C45.2235 7.55531 46.2519 7.28169 47.3652 7.28169ZM62.0158 9.68764C62.4876 8.9517 63.1386 8.35729 63.9689 7.9044C64.7992 7.45152 65.771 7.22508 66.8843 7.22508C68.1864 7.22508 69.3658 7.55531 70.4225 8.21576C71.4792 8.87622 72.3095 9.81973 72.9134 11.0463C73.5361 12.2728 73.8474 13.6975 73.8474 15.3204C73.8474 16.9432 73.5361 18.3773 72.9134 19.6228C72.3095 20.8493 71.4792 21.8023 70.4225 22.4816C69.3658 23.1421 68.1864 23.4723 66.8843 23.4723C65.7899 23.4723 64.8181 23.2458 63.9689 22.793C63.1386 22.3401 62.4876 21.7551 62.0158 21.038V30.775H57.1756V7.45152H62.0158V9.68764ZM68.9223 15.3204C68.9223 14.1127 68.5827 13.1692 67.9033 12.4899C67.2429 11.7917 66.422 11.4426 65.4408 11.4426C64.4784 11.4426 63.6575 11.7917 62.9782 12.4899C62.3178 13.1881 61.9875 14.141 61.9875 15.3487C61.9875 16.5564 62.3178 17.5093 62.9782 18.2075C63.6575 18.9057 64.4784 19.2548 65.4408 19.2548C66.4032 19.2548 67.224 18.9057 67.9033 18.2075C68.5827 17.4904 68.9223 16.5281 68.9223 15.3204ZM81.2269 2.29997V23.2458H76.3867V2.29997H81.2269ZM99.6231 15.0939C99.6231 15.5468 99.5948 16.0186 99.5382 16.5092H88.5841C88.6595 17.4904 88.9709 18.2453 89.5181 18.7736C90.0842 19.2831 90.773 19.5379 91.5844 19.5379C92.7921 19.5379 93.6318 19.0284 94.1036 18.0094H99.2551C98.991 19.0472 98.5098 19.9813 97.8116 20.8116C97.1323 21.6419 96.2737 22.2929 95.2358 22.7647C94.1979 23.2364 93.0374 23.4723 91.7543 23.4723C90.2069 23.4723 88.8294 23.1421 87.6217 22.4816C86.414 21.8212 85.4705 20.8776 84.7912 19.6511C84.1118 18.4245 83.7722 16.9904 83.7722 15.3487C83.7722 13.707 84.1024 12.2728 84.7629 11.0463C85.4422 9.81973 86.3857 8.87622 87.5934 8.21576C88.8011 7.55531 90.188 7.22508 91.7543 7.22508C93.2827 7.22508 94.6414 7.54587 95.8302 8.18746C97.019 8.82904 97.9437 9.74425 98.6041 10.9331C99.2835 12.1219 99.6231 13.5088 99.6231 15.0939ZM94.6697 13.8202C94.6697 12.9899 94.3866 12.3295 93.8205 11.8388C93.2544 11.3482 92.5468 11.1029 91.6976 11.1029C90.8862 11.1029 90.1975 11.3388 89.6314 11.8105C89.0841 12.2823 88.7445 12.9522 88.6124 13.8202H94.6697ZM111.517 23.2458L108.489 18.8585L105.941 23.2458H100.705L105.913 15.1789L100.563 7.45152H105.998L109.026 11.8105L111.574 7.45152H116.81L111.517 15.4053L116.952 23.2458H111.517Z" fill="#717171"/>
</svg>
