<svg width="24" height="25" viewBox="0 0 24 25" fill="none" xmlns="http://www.w3.org/2000/svg">
<path d="M17 3.75H7C4 3.75 2 5.25 2 8.75V15.75C2 19.25 4 20.75 7 20.75H17C20 20.75 22 19.25 22 15.75V8.75C22 5.25 20 3.75 17 3.75ZM17.47 9.84L14.34 12.34C13.68 12.87 12.84 13.13 12 13.13C11.16 13.13 10.31 12.87 9.66 12.34L6.53 9.84C6.21 9.58 6.16 9.1 6.41 8.78C6.67 8.46 7.14 8.4 7.46 8.66L10.59 11.16C11.35 11.77 12.64 11.77 13.4 11.16L16.53 8.66C16.85 8.4 17.33 8.45 17.58 8.78C17.84 9.1 17.79 9.58 17.47 9.84Z" fill="white"/>
</svg>
